<svg width="64" height="64" viewBox="0 0 64 64" fill="none" xmlns="http://www.w3.org/2000/svg">
<rect x="1" y="1" width="62" height="62" stroke="black" stroke-width="2"/>
<path d="M16.6328 27H13.5391L19.1719 11H22.75L28.3906 27H25.2969L21.0234 14.2812H20.8984L16.6328 27ZM16.7344 20.7266H25.1719V23.0547H16.7344V20.7266ZM37.098 27V11H43.098C44.3272 11 45.3585 11.2135 46.1918 11.6406C47.0303 12.0677 47.6632 12.6667 48.0902 13.4375C48.5225 14.2031 48.7387 15.0964 48.7387 16.1172C48.7387 17.1432 48.5199 18.0339 48.0824 18.7891C47.6501 19.5391 47.0121 20.1198 46.1684 20.5312C45.3246 20.9375 44.2882 21.1406 43.059 21.1406H38.7855V18.7344H42.6684C43.3871 18.7344 43.9757 18.6354 44.434 18.4375C44.8923 18.2344 45.2309 17.9401 45.4496 17.5547C45.6736 17.1641 45.7855 16.6849 45.7855 16.1172C45.7855 15.5495 45.6736 15.0651 45.4496 14.6641C45.2257 14.2578 44.8845 13.9505 44.4262 13.7422C43.9678 13.5286 43.3767 13.4219 42.6527 13.4219H39.9965V27H37.098ZM45.3637 19.75L49.3246 27H46.0902L42.1996 19.75H45.3637Z" fill="black"/>
<path d="M20 54H14.5781V38H20.1094C21.6979 38 23.0625 38.3203 24.2031 38.9609C25.349 39.5964 26.2292 40.5104 26.8438 41.7031C27.4583 42.8958 27.7656 44.3229 27.7656 45.9844C27.7656 47.651 27.4557 49.0833 26.8359 50.2812C26.2214 51.4792 25.3333 52.3984 24.1719 53.0391C23.0156 53.6797 21.625 54 20 54ZM17.4766 51.4922H19.8594C20.974 51.4922 21.9036 51.2891 22.6484 50.8828C23.3932 50.4714 23.9531 49.8594 24.3281 49.0469C24.7031 48.2292 24.8906 47.2083 24.8906 45.9844C24.8906 44.7604 24.7031 43.7448 24.3281 42.9375C23.9531 42.125 23.3984 41.5182 22.6641 41.1172C21.9349 40.7109 21.0286 40.5078 19.9453 40.5078H17.4766V51.4922ZM47.2055 38H50.1039V48.4531C50.1039 49.599 49.8331 50.6068 49.2914 51.4766C48.7549 52.3464 47.9997 53.026 47.0258 53.5156C46.0518 54 44.9138 54.2422 43.6117 54.2422C42.3044 54.2422 41.1638 54 40.1898 53.5156C39.2159 53.026 38.4607 52.3464 37.9242 51.4766C37.3878 50.6068 37.1195 49.599 37.1195 48.4531V38H40.018V48.2109C40.018 48.8776 40.1638 49.4714 40.4555 49.9922C40.7523 50.513 41.169 50.9219 41.7055 51.2188C42.2419 51.5104 42.8773 51.6562 43.6117 51.6562C44.3461 51.6562 44.9815 51.5104 45.518 51.2188C46.0596 50.9219 46.4763 50.513 46.768 49.9922C47.0596 49.4714 47.2055 48.8776 47.2055 48.2109V38Z" fill="black"/>
</svg>
