<?xml version="1.0" encoding="UTF-8"?>
<svg xmlns="http://www.w3.org/2000/svg" xmlns:xlink="http://www.w3.org/1999/xlink" width="120px" height="37px" viewBox="0 0 120 37" version="1.1">
<g id="surface1">
<path style=" stroke:none;fill-rule:evenodd;fill:rgb(0%,0%,0%);fill-opacity:1;" d="M 0 18.1875 L 0 36.378906 L 6.433594 36.378906 L 6.839844 33.832031 L 8.058594 34.9375 C 9.730469 36.453125 12.15625 37.132812 15.097656 36.910156 C 19.039062 36.609375 22.359375 34.523438 24.050781 31.289062 L 24.9375 29.589844 L 25.773438 31.054688 C 27.871094 34.742188 32.21875 37 37.210938 37 C 42.207031 37 46.351562 34.738281 48.28125 30.949219 L 49.066406 29.410156 L 49.679688 30.605469 C 50.484375 32.179688 52.921875 34.601562 54.519531 35.417969 C 57.582031 36.984375 61.832031 37.417969 65.285156 36.515625 C 68.714844 35.621094 71.402344 33.503906 72.753906 30.625 L 73.480469 29.070312 L 73.484375 32.726562 L 73.488281 36.378906 L 80.621094 36.378906 L 80.621094 29.046875 L 81.980469 27.707031 L 83.339844 26.371094 L 84.71875 28.34375 C 85.480469 29.429688 86.984375 31.574219 88.058594 33.113281 C 89.132812 34.652344 90.167969 36.015625 90.355469 36.148438 C 90.542969 36.277344 91.742188 36.347656 93.019531 36.300781 C 94.960938 36.234375 95.359375 36.132812 95.445312 35.671875 C 95.507812 35.351562 93.941406 32.816406 91.695312 29.609375 C 89.578125 26.578125 87.75 23.722656 87.640625 23.261719 C 87.53125 22.804688 87.585938 22.050781 87.761719 21.585938 C 87.9375 21.121094 90.460938 17.246094 93.367188 12.972656 C 97.019531 7.605469 98.550781 5.109375 98.328125 4.886719 C 98.007812 4.5625 97.4375 5.078125 85.277344 16.746094 L 80.621094 21.214844 L 80.621094 0 L 73.488281 0 L 73.484375 9.25 L 73.476562 18.5 L 72.539062 16.789062 C 71.238281 14.425781 69.953125 13.1875 67.597656 12.027344 C 65.644531 11.070312 64.652344 10.726562 61.550781 10.726562 C 58.140625 10.726562 57.277344 11.140625 55.738281 11.761719 C 53.65625 12.601562 50.875 15.023438 49.71875 17 L 48.917969 18.371094 L 48.214844 16.878906 C 46.347656 12.941406 42.570312 10.878906 37.230469 10.886719 C 32.738281 10.890625 29.847656 12.019531 27.34375 14.742188 C 26.625 15.523438 25.804688 16.652344 25.519531 17.253906 C 25.234375 17.855469 24.90625 18.34375 24.785156 18.34375 C 24.667969 18.34375 24.394531 17.917969 24.179688 17.394531 C 23.527344 15.820312 21.21875 13.710938 18.984375 12.652344 C 17.144531 11.78125 16.589844 11.667969 14.261719 11.675781 C 11.34375 11.683594 9.257812 12.390625 7.675781 13.910156 L 6.820312 14.730469 L 6.820312 0 L 0 0 Z M 84.25 6.222656 C 83.203125 7.046875 82.925781 8.394531 83.550781 9.605469 C 84.449219 11.351562 86.464844 11.738281 87.960938 10.449219 C 88.640625 9.863281 88.824219 9.4375 88.824219 8.445312 C 88.824219 5.957031 86.203125 4.683594 84.25 6.222656 Z M 108.371094 11.191406 C 106.570312 11.570312 105.40625 12.066406 104.265625 12.941406 L 103.253906 13.710938 L 103.253906 11.503906 L 96.125 11.503906 L 96.125 36.378906 L 103.226562 36.378906 L 103.320312 28.160156 C 103.40625 20.425781 103.449219 19.894531 104.050781 19.085938 C 105.632812 16.964844 108.300781 16.210938 110.511719 17.261719 C 112.492188 18.203125 112.558594 18.554688 112.558594 27.96875 L 112.558594 36.378906 L 119.722656 36.378906 L 119.628906 26.351562 C 119.523438 15.246094 119.550781 15.40625 117.386719 13.300781 C 115.605469 11.5625 111.339844 10.566406 108.371094 11.191406 Z M 40.15625 16.746094 C 41.019531 17.230469 42.757812 20.035156 42.410156 20.386719 C 42.328125 20.46875 39.792969 20.496094 36.78125 20.449219 L 31.304688 20.367188 L 32.007812 18.984375 C 32.398438 18.226562 33.085938 17.328125 33.546875 16.996094 C 35.171875 15.808594 38.265625 15.691406 40.15625 16.746094 Z M 63.324219 16.804688 C 64.863281 17.234375 66.238281 18.441406 66.726562 19.792969 L 67.125 20.898438 L 69.300781 20.695312 C 70.496094 20.585938 71.925781 20.414062 72.480469 20.316406 L 73.488281 20.140625 L 73.488281 27.441406 L 70.929688 27.230469 C 69.523438 27.113281 68.132812 26.949219 67.84375 26.863281 C 67.46875 26.75 67.140625 27.050781 66.710938 27.890625 C 65.546875 30.167969 64.003906 31.09375 61.363281 31.09375 C 57.433594 31.09375 54.828125 27.578125 55.308594 22.925781 C 55.789062 18.277344 59.214844 15.660156 63.324219 16.804688 Z M 14.277344 17.617188 C 14.886719 17.738281 15.890625 18.398438 16.765625 19.25 C 17.992188 20.445312 18.289062 20.96875 18.597656 22.472656 C 19.238281 25.625 18.269531 28.515625 16.046875 30.058594 C 12.9375 32.21875 8.316406 30.769531 6.960938 27.207031 C 6.136719 25.042969 6.429688 21.847656 7.609375 20.144531 C 9.128906 17.953125 11.492188 17.058594 14.277344 17.617188 Z M 48.171875 26.039062 C 48.257812 26.339844 48.421875 27.058594 48.539062 27.640625 L 48.75 28.699219 L 47.246094 28.492188 C 42.550781 27.84375 42.6875 27.832031 42.074219 28.890625 C 40.886719 30.925781 36.882812 31.796875 34.441406 30.546875 C 33.023438 29.824219 31.648438 28.042969 31.421875 26.636719 L 31.238281 25.496094 L 39.628906 25.496094 C 47.355469 25.496094 48.03125 25.539062 48.171875 26.039062 Z M 48.171875 26.039062 "/>
</g>
</svg>
