<?xml version="1.0" encoding="UTF-8"?>
<!DOCTYPE svg PUBLIC "-//W3C//DTD SVG 1.1//EN" "http://www.w3.org/Graphics/SVG/1.1/DTD/svg11.dtd">
<!-- Creator: CorelDRAW X7 -->
<svg xmlns="http://www.w3.org/2000/svg" xml:space="preserve" width="3220px" height="2606px" version="1.1" style="shape-rendering:geometricPrecision; text-rendering:geometricPrecision; image-rendering:optimizeQuality; fill-rule:evenodd; clip-rule:evenodd"
viewBox="0 0 729 590"
 xmlns:xlink="http://www.w3.org/1999/xlink">
 <defs>
  <style type="text/css">
   <![CDATA[
    .fil7 {fill:none}
    .fil3 {fill:#3F3D56}
    .fil20 {fill:#4B3648}
    .fil23 {fill:#4C4981}
    .fil0 {fill:#535F89}
    .fil13 {fill:#636780}
    .fil27 {fill:#9A5E7F}
    .fil9 {fill:#A8A8A8}
    .fil17 {fill:#BDD3E8}
    .fil24 {fill:#CEDDF9}
    .fil11 {fill:#DCE0ED}
    .fil2 {fill:#DCE2ED}
    .fil6 {fill:#DEA3A2}
    .fil19 {fill:#E6EBEF}
    .fil12 {fill:#F0F0F4}
    .fil16 {fill:#F3B4B4}
    .fil15 {fill:#F899A5}
    .fil25 {fill:#FEC2BE}
    .fil26 {fill:white}
    .fil21 {fill:black;fill-opacity:0.011765}
    .fil18 {fill:black;fill-opacity:0.050980}
    .fil1 {fill:black;fill-opacity:0.101961}
    .fil8 {fill:#3F3D56;fill-opacity:0.101961}
    .fil22 {fill:white;fill-opacity:0.101961}
    .fil28 {fill:black;fill-opacity:0.149020}
    .fil10 {fill:black;fill-opacity:0.200000}
    .fil4 {fill:#3F3D56;fill-opacity:0.200000}
    .fil5 {fill:#3F3D56;fill-opacity:0.631373}
    .fil14 {fill:url(#id0)}
   ]]>
  </style>
  <linearGradient id="id0" gradientUnits="userSpaceOnUse" x1="244.788" y1="413.104" x2="244.788" y2="313.878">
   <stop offset="0" style="stop-opacity:0.25098; stop-color:gray"/>
   <stop offset="0.541176" style="stop-opacity:0.121569; stop-color:gray"/>
   <stop offset="1" style="stop-opacity:0.101961; stop-color:gray"/>
  </linearGradient>
 </defs>
 <g id="Layer_x0020_1">
  <metadata id="CorelCorpID_0Corel-Layer"/>
  <rect class="fil0" x="411" y="186" width="3.9395" height="217.172"/>
  <path class="fil0" d="M418 444c-1,2 -4,2 -6,2 -2,0 -4,0 -6,-2 -2,-11 3,-34 4,-39l0 -1 5 0c0,0 0,0 1,1 3,7 2,39 2,39z"/>
  <path class="fil1" d="M414 399l0 5 -2 0 0 -5c0,0 0,0 1,0 0,0 0,0 0,0 0,0 0,0 0,0 0,0 0,0 1,0l0 0z"/>
  <path class="fil1" d="M416 405c0,0 0,0 -1,0 -1,0 -2,0 -3,-1l1 -1 2 0c0,0 1,1 1,2l0 0z"/>
  <ellipse class="fil2" cx="413" cy="402" rx="4" ry="3"/>
  <polygon class="fil3" points="394,151 409,144 431,150 414,137 "/>
  <polygon class="fil3" points="398,154 394,151 409,144 431,150 427,151 409,147 "/>
  <polygon class="fil1" points="398,154 394,151 409,144 431,150 427,151 409,147 "/>
  <polygon class="fil4" points="398,152 410,186 416,186 427,150 409,146 "/>
  <polygon class="fil3" points="419,176 416,184 416,186 410,186 409,185 407,177 411,174 "/>
  <polygon class="fil4" points="409,147 412,186 410,186 398,154 "/>
  <polygon class="fil1" points="414,137 409,144 394,151 "/>
  <path class="fil1" d="M416 184l0 2 -6 0 -1 -1c1,-1 3,-2 4,-2 0,0 0,0 0,0 0,0 0,0 0,0 1,0 3,0 3,1l0 0z"/>
  <path class="fil1" d="M414 186l0 4c0,0 -1,0 -1,0 0,0 0,0 0,0 0,0 -1,0 -1,0l0 -4 2 0z"/>
  <ellipse class="fil2" cx="413" cy="186" rx="4" ry="3"/>
  <rect class="fil0" x="565" y="292" width="2.6029" height="143.579"/>
  <path class="fil0" d="M570 463c-1,0 -2,1 -4,1 -1,0 -3,-1 -4,-1 -1,-8 2,-23 2,-27 0,0 1,0 1,0l3 0c0,0 0,0 0,0 3,5 2,27 2,27z"/>
  <path class="fil1" d="M567 433l0 3 -1 0 0 -3c0,0 0,-1 0,-1 0,0 0,0 0,0 1,0 1,1 1,1l0 0z"/>
  <path class="fil1" d="M568 436c0,0 0,0 0,0 0,0 -1,0 -2,0 0,-1 0,-1 0,-1l4 0c0,1 -1,1 -2,1l0 0z"/>
  <ellipse class="fil2" cx="566" cy="435" rx="3" ry="2"/>
  <polygon class="fil3" points="554,269 564,264 579,268 567,259 "/>
  <polygon class="fil3" points="557,270 554,269 564,264 579,268 576,269 564,266 "/>
  <polygon class="fil1" points="557,270 554,269 564,264 579,268 576,269 564,266 "/>
  <polygon class="fil4" points="557,269 565,292 569,292 576,268 564,265 "/>
  <polygon class="fil3" points="570,285 569,290 569,292 565,292 564,291 562,286 565,284 "/>
  <polygon class="fil4" points="564,266 566,292 565,292 557,270 "/>
  <polygon class="fil1" points="567,259 564,264 554,269 "/>
  <path class="fil1" d="M569 290l0 2 -4 0 -1 -1c1,-1 2,-1 3,-1 0,0 0,0 0,0 0,0 0,0 0,0 1,0 1,0 2,0l0 0z"/>
  <path class="fil1" d="M567 292l0 2 0 0c0,0 0,0 0,0 -1,0 -1,0 -1,0l0 -2 1 0z"/>
  <ellipse class="fil2" cx="567" cy="292" rx="3" ry="2"/>
  <path class="fil5" d="M629 559c0,-17 -140,-31 -314,-31 -174,0 -315,14 -315,31 0,17 141,31 315,31 174,0 314,-14 314,-31z"/>
  <path class="fil6" d="M316 486c0,0 -63,-2 -70,-126 -6,-123 59,-144 59,-144 0,0 21,-12 30,-12 10,-1 41,2 41,2l-34 -6c0,0 47,-19 62,-20l-52 11c0,0 -1,-29 12,-38 0,0 -11,-1 -17,19 -3,13 -12,22 -23,27 -19,7 -46,19 -52,29 0,0 -11,12 -9,-18 1,-31 9,-57 12,-57 0,0 23,-25 55,-26 0,0 -19,-8 -50,16 0,0 -3,-12 9,-26 12,-14 30,-44 51,-47 0,0 -29,-2 -51,35 0,0 -8,5 -9,-9 -1,-13 -6,-30 -6,-30 0,0 -6,31 8,45 0,0 -27,36 -26,76 0,0 -9,18 -12,-3 0,0 -2,-29 -5,-55 -1,-3 -1,-7 -1,-10 0,-17 6,-33 16,-47 6,-7 10,-14 8,-18l-32 38c0,0 -27,-62 -46,-76 -19,-13 -22,-16 -22,-16l32 37 -40 -14 40 18c0,0 18,15 28,55 11,41 12,66 12,66 0,0 -57,-44 -67,-43l36 28c20,15 33,38 34,63l0 0c0,0 -70,-18 -87,-21l-32 -33 24 31 -50 -1 -29 -20c0,0 23,19 21,20 -2,1 -35,3 -35,3 0,0 84,-1 93,5 9,6 30,8 30,8l-60 9 71 -5c0,0 54,10 57,27 0,0 -11,28 -18,40 -6,9 -18,40 -21,66 -2,27 -6,68 3,93 10,25 13,40 9,47 -5,8 -9,17 6,19 15,2 81,-1 81,-1 0,0 20,4 16,-11z"/>
  <path class="fil1" d="M281 473c-5,-2 -10,-3 -15,-3 -2,0 -4,0 -7,0 -12,3 -31,2 -33,1m55 2l0 0 0 0z"/>
  <path class="fil1" d="M241 328c0,0 -3,47 2,56l-2 -56z"/>
  <path class="fil1" d="M230 384c0,0 4,45 7,54 2,8 -7,-54 -7,-54z"/>
  <path class="fil1" d="M226 275c-3,1 -14,25 -12,32 2,7 12,-32 12,-32z"/>
  <path class="fil1" d="M256 250c-1,1 -7,15 -6,19 1,4 6,-19 6,-19z"/>
  <path class="fil1" d="M205 330c2,14 2,23 1,34 0,4 0,7 0,11 0,5 0,10 1,15m-2 -60l0 0 0 0z"/>
  <path class="fil1" d="M352 170c-2,1 -2,4 -2,7 -1,2 0,5 0,7 -1,3 -2,6 -4,6m6 -20l0 0 0 0z"/>
  <path class="fil1" d="M307 87c-3,4 -6,7 -9,11 -1,1 -1,3 -2,4 -2,1 -4,2 -5,4 -4,3 -7,7 -8,12m24 -31l0 0 0 0z"/>
  <path class="fil1" d="M180 16c1,2 2,3 3,4 1,1 2,2 3,3 1,1 2,3 2,4 3,4 6,7 9,11m-17 -22l0 0 0 0z"/>
  <path class="fil1" d="M239 87c-2,1 -3,4 -3,6 0,3 1,5 0,7 -1,1 -1,2 -2,3 -1,2 -1,4 -1,6 1,2 1,5 1,7 0,3 0,5 2,7m3 -36l0 0 0 0z"/>
  <path class="fil7" d="M221 156c2,2 3,4 3,6 0,1 0,2 1,3 1,2 3,3 4,5"/>
  <path class="fil1" d="M237 220c-1,-1 -3,-2 -5,-2 -2,-1 -4,-1 -7,-1 -2,0 -5,-1 -7,-3m19 6l0 0 0 0z"/>
  <path class="fil1" d="M138 189c3,0 6,0 9,2 1,0 2,1 4,2 1,1 3,1 5,1m-18 -5l0 0 0 0z"/>
  <path class="fil1" d="M179 201c0,0 -1,0 -2,1 0,0 -1,1 -1,2 -1,1 -3,1 -5,1m8 -4l0 0 0 0z"/>
  <path class="fil1" d="M196 138l3 2c3,1 6,3 8,5m-11 -7l0 0 0 0z"/>
  <path class="fil1" d="M229 166c1,0 3,2 3,4 1,2 0,4 1,5 0,2 1,3 3,5m-7 -14l0 0 0 0z"/>
  <path class="fil1" d="M260 170c2,5 -2,10 -1,16 1,1 1,3 2,4 1,4 -1,9 -4,12m3 -32l0 0 0 0z"/>
  <rect class="fil0" x="154" y="128" width="4.91575" height="271.088"/>
  <path class="fil0" d="M163 450c-2,2 -5,3 -8,3 -2,0 -5,-1 -8,-3 -2,-14 4,-43 5,-49l0 -1 7 0c0,0 1,0 1,1 4,9 3,49 3,49z"/>
  <path class="fil1" d="M157 394l0 6 -2 0 0 -6c0,0 1,0 1,0 0,0 0,0 0,0 0,0 0,0 0,0 1,0 1,0 1,0l0 0z"/>
  <path class="fil1" d="M160 401c0,0 0,0 0,0 -2,0 -3,0 -4,-1l0 -1 6 0c0,1 -1,2 -2,2l0 0z"/>
  <ellipse class="fil2" cx="156" cy="398" rx="5" ry="3"/>
  <polygon class="fil3" points="133,85 151,76 179,82 158,66 "/>
  <polygon class="fil3" points="138,88 133,85 151,76 179,82 174,85 151,80 "/>
  <polygon class="fil1" points="138,88 133,85 151,76 179,82 174,85 151,80 "/>
  <polygon class="fil4" points="138,86 153,128 160,128 174,83 151,78 "/>
  <polygon class="fil3" points="164,116 161,125 160,128 153,128 152,126 148,116 154,113 "/>
  <polygon class="fil4" points="151,80 155,128 153,128 138,88 "/>
  <polygon class="fil1" points="158,66 151,76 133,85 "/>
  <path class="fil1" d="M161 125l-1 3 -7 0 -1 -2c1,-1 3,-2 5,-2 0,0 0,0 0,0 1,0 3,1 4,1l0 0z"/>
  <path class="fil1" d="M157 128l0 5c0,0 0,0 0,0 0,0 0,0 0,0 -1,0 -2,0 -2,-1l0 -4 2 0z"/>
  <ellipse class="fil2" cx="157" cy="128" rx="5" ry="3"/>
  <path class="fil8" d="M658 486c0,-1 -5,-2 -12,-2 -6,0 -11,1 -11,2 0,1 5,2 11,2 7,0 12,-1 12,-2z"/>
  <path class="fil9" d="M638 477c0,0 7,0 9,-2 2,-1 11,-3 11,-1 1,3 10,12 3,12 -8,0 -18,-1 -20,-2 -2,-2 -3,-7 -3,-7z"/>
  <path class="fil10" d="M661 485c-8,0 -18,-1 -20,-2 -1,-1 -2,-4 -2,-6l0 0c0,0 0,5 2,7 2,1 12,2 20,2 2,0 3,-1 3,-2 -1,1 -1,1 -3,1z"/>
  <path class="fil8" d="M725 463c0,-1 -4,-2 -10,-2 -5,0 -9,1 -9,2 0,1 4,1 9,1 6,0 10,0 10,-1z"/>
  <path class="fil9" d="M709 456c0,0 6,0 7,-2 2,-1 8,-2 9,0 0,2 7,9 1,9 -5,0 -13,-1 -15,-2 -1,-1 -2,-5 -2,-5z"/>
  <path class="fil10" d="M727 462c-6,0 -14,-1 -16,-2 -1,0 -1,-3 -2,-4l0 0c0,0 1,4 2,5 2,1 10,2 15,2 2,0 3,-1 3,-2 0,1 -1,1 -2,1z"/>
  <path class="fil8" d="M696 561c0,-2 -10,-4 -22,-4 -12,0 -22,2 -22,4 0,2 10,3 22,3 12,0 22,-1 22,-3z"/>
  <path class="fil9" d="M659 544c0,0 13,-1 16,-3 4,-3 20,-6 21,-2 1,4 18,21 4,21 -14,1 -32,-2 -36,-4 -4,-2 -5,-12 -5,-12z"/>
  <path class="fil10" d="M700 559c-14,0 -32,-2 -36,-5 -3,-1 -4,-8 -4,-10l-1 0c0,0 1,10 5,12 4,2 22,5 36,4 4,0 6,-1 6,-3 -1,1 -2,2 -6,2z"/>
  <path class="fil6" d="M448 387c0,0 37,-1 41,-72 3,-71 -34,-83 -34,-83 0,0 -12,-7 -18,-7 -5,-1 -23,1 -23,1l20 -4c0,0 -28,-10 -36,-11l30 6c0,0 0,-16 -7,-22 0,0 6,0 9,12 2,7 7,12 14,15 11,4 26,11 30,17 0,0 6,7 5,-11 -1,-17 -5,-32 -7,-33 0,0 -13,-14 -32,-14 0,0 11,-5 29,9 0,0 2,-7 -5,-15 -7,-8 -18,-25 -29,-27 0,0 16,-1 29,20 0,0 5,3 5,-5 1,-8 3,-18 3,-18 0,0 4,18 -4,27 0,0 16,20 15,43 0,0 5,11 7,-2 0,0 1,-17 3,-31 0,-2 0,-4 0,-6 0,-10 -3,-19 -9,-27 -3,-4 -6,-8 -5,-11l19 22c0,0 15,-35 26,-43 11,-8 13,-9 13,-9l-18 21 22 -8 -22 10c0,0 -11,9 -17,32 -6,23 -6,38 -6,38 0,0 32,-26 38,-25l-21 16c-11,9 -18,22 -19,36l0 0c0,0 40,-10 50,-12l18 -19 -14 18 29 0 17 -12c0,0 -13,11 -12,11 1,1 20,2 20,2 0,0 -48,0 -54,3 -5,4 -17,5 -17,5l34 5 -40 -3c0,0 -31,6 -33,15 0,0 6,17 11,23 3,6 10,23 12,39 1,15 3,39 -2,53 -6,14 -8,23 -5,27 3,4 5,10 -4,11 -8,1 -46,-1 -46,-1 0,0 -12,3 -10,-6z"/>
  <path class="fil1" d="M469 379c2,-1 5,-2 8,-2 1,0 3,1 4,1 7,1 18,1 19,0m-31 1l0 0 0 0z"/>
  <path class="fil1" d="M492 296c0,0 1,27 -2,32l2 -32z"/>
  <path class="fil1" d="M498 328c0,0 -2,26 -4,31 -1,5 4,-31 4,-31z"/>
  <path class="fil1" d="M500 266c2,0 8,14 7,18 -1,4 -7,-18 -7,-18z"/>
  <path class="fil1" d="M483 251c1,1 4,9 3,11 0,2 -3,-11 -3,-11z"/>
  <path class="fil1" d="M512 297c-1,8 -1,13 -1,20 1,2 1,4 1,6 0,3 0,6 -1,9m1 -35l0 0 0 0z"/>
  <path class="fil1" d="M428 205c1,1 1,3 1,4 0,0 0,0 0,0 0,1 0,3 0,4 0,2 1,4 2,4m-3 -12l0 0 0 0z"/>
  <path class="fil1" d="M454 158c2,2 3,4 5,6 2,2 3,4 4,7m-9 -13l0 0 0 0z"/>
  <path class="fil1" d="M527 117c-1,1 -1,2 -2,2 -1,1 -1,2 -2,2 -2,2 -3,5 -5,7m9 -11l0 0 0 0z"/>
  <path class="fil1" d="M493 157c1,1 1,3 1,4 0,2 0,3 1,4 0,1 0,2 1,2 0,1 0,2 0,3 0,0 0,0 0,0 0,2 0,3 0,4 0,2 0,3 -1,5m-2 -22l0 0 0 0z"/>
  <path class="fil7" d="M503 197c-1,1 -2,2 -2,4 0,0 0,1 0,1 -1,1 -2,2 -3,3"/>
  <path class="fil1" d="M494 234c1,-1 2,-1 2,-1 3,-1 5,-2 7,-2 2,0 3,-1 4,-2m-13 5l0 0 0 0z"/>
  <path class="fil1" d="M551 216c-2,0 -4,0 -5,1 -1,1 -2,1 -2,2 -1,0 -3,0 -4,0m11 -3l0 0 0 0z"/>
  <path class="fil1" d="M527 223c0,0 0,0 1,0 0,0 0,0 0,1 1,0 1,0 1,1 1,0 2,0 3,0m-5 -2l0 0 0 0z"/>
  <path class="fil1" d="M517 187l-1 1c-2,1 -4,2 -5,3m6 -4l0 0 0 0z"/>
  <path class="fil1" d="M499 203c-1,0 -2,1 -2,2 -1,1 0,2 -1,3 0,1 -1,2 -1,3m4 -8l0 0 0 0z"/>
  <path class="fil1" d="M481 205c-1,3 1,6 0,9 0,1 -1,2 -1,3 0,2 1,5 2,7m-1 -19l0 0 0 0z"/>
  <path class="fil3" d="M270 264c-12,15 -22,61 -24,75l-21 -1c2,-12 26,-60 33,-73 4,0 8,-1 12,-1z"/>
  <rect class="fil11" x="513" y="258" width="8.96833" height="12.6322"/>
  <path class="fil1" d="M522 258l0 4c0,0 -1,0 -2,0 0,0 0,0 0,0l-7 0 0 -4 9 0z"/>
  <path class="fil11" d="M510 226l8 0c4,0 8,2 9,6 3,6 5,16 -1,26 -1,2 -3,3 -6,3 0,0 0,0 0,0l-10 0 0 -35z"/>
  <ellipse class="fil12" cx="510" cy="244" rx="9" ry="18"/>
  <rect class="fil11" x="434" y="258" width="8.96833" height="11.0548"/>
  <path class="fil1" d="M443 258l0 4c-1,0 -2,0 -2,0 0,0 0,0 0,0l-7 0 0 -4 9 0z"/>
  <path class="fil11" d="M430 226l8 0c5,0 8,3 10,6 2,7 4,16 -1,26 -1,2 -4,3 -6,3 0,0 0,0 0,0l-11 0 0 -35z"/>
  <ellipse class="fil12" cx="430" cy="244" rx="9" ry="18"/>
  <path class="fil11" d="M432 232c0,0 -3,1 -1,5 0,3 1,5 2,7 0,2 3,2 3,-4 0,-6 -4,-8 -4,-8z"/>
  <ellipse class="fil13" cx="92" cy="484" rx="53" ry="58"/>
  <path class="fil1" d="M112 430c-27,2 -49,27 -49,58 0,25 14,46 34,54 28,-2 49,-27 49,-58 0,-24 -14,-46 -34,-54z"/>
  <ellipse class="fil13" cx="506" cy="358" rx="43" ry="56"/>
  <path class="fil1" d="M494 304c-17,7 -30,28 -30,54 0,27 14,50 34,55 18,-7 31,-29 31,-54 0,-27 -15,-50 -35,-55z"/>
  <path class="fil3" d="M345 346l1 -21c0,0 -4,-8 -8,-9 -4,-1 -13,-1 -13,-1 0,0 -7,29 -3,38 5,8 23,-7 23,-7z"/>
  <path class="fil1" d="M345 346l1 -21c0,0 -4,-8 -8,-9 -4,-1 -13,-1 -13,-1 0,0 -7,29 -3,38 5,8 23,-7 23,-7z"/>
  <path class="fil3" d="M272 344c0,0 -3,-29 13,-29 2,0 4,0 6,0 10,-1 40,-4 36,3 0,0 -7,24 -2,31l-53 -5z"/>
  <path class="fil3" d="M491 396l21 0c0,0 3,-38 5,-41 1,-3 1,-17 -2,-19 -4,-2 -17,-5 -17,-5l-10 22 -1 20 4 23z"/>
  <path class="fil1" d="M491 396l21 0c0,0 3,-38 5,-41 1,-3 1,-17 -2,-19 -4,-2 -17,-5 -17,-5l-10 22 -1 20 4 23z"/>
  <path class="fil3" d="M441 332l0 -4c0,0 0,0 0,0 0,-1 1,-2 2,-2 0,0 0,0 0,0 11,0 48,2 55,5 0,0 -8,53 0,66l-2 43 -92 -7 37 -101z"/>
  <path class="fil1" d="M434 265c2,0 5,-1 9,-1l0 5 -9 0 0 -4z"/>
  <path class="fil1" d="M522 270l0 1 -9 0 0 -4c3,1 6,2 9,3l0 0z"/>
  <path class="fil14" d="M269 333c1,0 1,-1 1,-1 0,0 0,0 0,0l0 0c0,1 0,1 0,1l0 0c0,0 -1,1 -1,1 0,-1 0,-1 0,-1zm34 -10c0,-1 1,-2 1,-3 -1,1 -2,2 -2,3l1 0zm4 -9c0,1 -1,3 -2,4 0,-1 1,-3 2,-4l0 0zm-127 99c4,0 7,0 7,0 -1,0 -4,0 -7,0zm7 0c0,0 1,-1 5,-1 0,0 -3,0 -5,1zm121 -54l1 -23c0,0 0,11 0,16 0,1 0,1 0,1 0,2 -1,4 -1,6l0 0z"/>
  <path class="fil15" d="M233 402c0,0 -1,1 -1,2 -1,3 -2,6 -3,6 0,1 -3,1 -6,1 -1,0 -1,0 -2,0 -4,0 -9,-1 -12,-4 -4,-3 1,-2 3,-3 2,-1 4,-3 4,-4 1,-1 4,-3 6,-4 1,0 1,-1 1,-1l10 7z"/>
  <path class="fil16" d="M229 412c0,0 -33,-2 -35,-2 -2,-1 -3,-3 -3,-3 0,-1 3,-1 3,-1l0 0c0,0 4,1 8,1l0 0c3,0 6,1 6,0l0 0c2,0 5,0 5,0 -2,-5 -7,-7 -9,-7l0 0c0,-1 1,-1 2,-2 7,1 10,10 10,10l0 0c1,0 9,3 11,3l0 0c1,0 2,1 2,1z"/>
  <path class="fil15" d="M211 415c0,0 0,1 -1,1 -1,0 -1,0 -1,0 0,0 -1,0 -1,0l0 0c-3,-1 -6,-1 -9,-2 -1,-1 -1,-1 -2,-1l0 0c-1,0 -2,-1 -3,-1 -3,0 -4,1 -4,1l0 0c0,0 -3,0 -7,0l0 0c-2,0 -5,-1 -8,-1l0 0c0,0 0,0 -1,0 0,0 -1,-1 -2,-1 -3,-2 9,-4 9,-4 1,0 3,0 4,-1l0 -1 0 0 0 0c1,0 1,-1 2,-1l0 0c3,-2 6,-4 6,-4 0,0 1,0 1,-1l0 0 7 -2 4 12c0,0 0,0 0,1 6,-1 7,4 6,5z"/>
  <path class="fil1" d="M210 416c-1,0 -1,0 -1,0 0,0 -1,0 -1,0l0 0c-3,-1 -6,-1 -9,-2 -1,-1 -1,-1 -2,-1l0 0c-1,0 -2,-1 -3,-1 -3,0 -4,1 -4,1l0 0c0,0 -3,0 -7,0l0 0c-2,0 -5,-1 -8,-1l0 0c0,0 0,0 -1,0 1,0 1,0 1,0 0,0 0,0 1,0l0 0c0,0 4,0 7,1l0 0c3,0 6,0 7,0l0 0c1,-1 4,-1 4,-1 -2,-5 -7,-7 -9,-7 0,0 0,0 0,0l0 0c1,0 1,-1 2,-1l0 0c7,0 11,9 11,9l0 0c1,0 9,2 10,2l0 0c1,0 1,0 2,1l0 0z"/>
  <path class="fil16" d="M210 416c0,0 -33,0 -35,0 -2,0 -3,-3 -3,-3 0,-1 3,-1 3,-1l0 0c1,0 4,1 8,1l0 0c3,0 6,0 7,0l0 0c1,-1 4,-1 4,-1 -2,-5 -7,-6 -9,-6l0 -1c0,0 1,-1 2,-1 6,0 10,9 10,9l0 0c1,0 9,2 11,3l0 0c2,0 2,0 2,0z"/>
  <path class="fil1" d="M233 402c0,0 -1,1 -1,2 0,0 -7,-4 -9,-7 -1,0 -1,0 -1,-1 1,0 1,-1 1,-1l10 7z"/>
  <path class="fil17" d="M252 388l-2 3 -11 6c0,0 -3,3 -3,4 -1,0 -1,1 -2,2 0,1 -7,-5 -9,-8 -1,0 -1,-1 -1,-2 2,-1 10,-8 10,-8 0,0 6,-7 6,-7 0,0 3,-2 5,-4l1 -1 6 15z"/>
  <path class="fil15" d="M305 311l-11 19 -4 8 -21 -3 0 -1 2 -4 1 -2 0 0 2 -4 1 0 1 -3 4 -5c0,0 1,0 1,-1 1,-3 -1,-9 -1,-9 0,0 8,-20 11,-9 2,8 8,12 11,14 1,0 2,0 3,0l0 0z"/>
  <path class="fil17" d="M268 378l0 2c0,0 8,6 7,12 -1,5 1,12 1,12l7 0 -1 -26 -14 0z"/>
  <path class="fil18" d="M283 404l-7 0c0,0 -2,-7 -1,-12 1,-6 -7,-12 -7,-12l0 -2 14 0 0 2 1 24z"/>
  <path class="fil18" d="M243 377c-2,2 -4,4 -6,7 -2,3 -7,8 -7,8l-5 3 -2 2c-1,-1 -1,-2 -1,-2 2,-2 11,-8 11,-8 0,0 5,-7 5,-7 0,0 3,-3 5,-4l0 1z"/>
  <path class="fil1" d="M211 407c0,0 0,0 0,0 0,1 0,4 -3,-4 -3,-8 -9,-6 -9,-6 0,0 0,0 0,0 0,0 0,0 0,0 0,0 0,-1 1,-1l0 0 7 -2 4 11c0,0 0,1 0,2z"/>
  <path class="fil17" d="M235 362l-4 0 -2 4c0,0 -5,5 -6,6 -1,1 -10,10 -13,14 0,0 -2,1 -2,2 0,1 -4,5 -4,5 0,0 -5,3 -4,3 0,0 6,-2 9,6 2,8 2,5 2,5 1,-1 1,-1 2,-2 1,0 4,-4 4,-4 1,0 2,-1 2,-1l6 -5 5 -3c0,0 4,-5 6,-8 2,-3 4,-5 7,-7l-8 -15z"/>
  <path class="fil1" d="M216 388c0,0 7,3 6,4 0,0 -6,-4 -6,-4z"/>
  <path class="fil1" d="M221 387c0,0 1,3 4,3 2,0 -4,-3 -4,-3z"/>
  <path class="fil1" d="M211 395c0,0 1,2 3,2 3,1 -3,-2 -3,-2z"/>
  <path class="fil1" d="M238 388c0,0 3,1 4,3 0,2 -4,-3 -4,-3z"/>
  <path class="fil1" d="M229 395c2,0 6,5 5,5 0,1 -5,-5 -5,-5z"/>
  <path class="fil1" d="M235 392c1,0 1,0 1,0 1,0 1,0 2,0 1,1 -3,0 -3,0z"/>
  <path class="fil15" d="M261 358c0,0 -14,-5 -13,0 1,4 13,6 13,6l0 -6z"/>
  <path class="fil1" d="M305 311l-11 19 -4 8 -21 -3 0 -1c0,-1 1,-1 1,-2l0 0c1,-1 2,-3 3,-5 0,0 0,0 0,0l2 -2 4 -5 1 -2 2 -1 -3 2c0,0 -2,4 -2,5 0,0 -4,5 -4,5 0,0 -5,5 5,5 10,0 17,-10 17,-10l8 -14c1,1 2,1 2,1l0 0z"/>
  <polygon class="fil1" points="282,380 278,380 268,379 268,378 282,378 "/>
  <path class="fil19" d="M303 309c0,0 2,2 4,2 0,0 -3,4 -4,8 0,0 -6,9 -2,13 4,3 6,4 6,4l-1 23c0,0 3,15 4,16 2,1 1,4 1,4 0,0 0,3 0,4 1,0 1,5 1,5 0,0 -4,-2 -5,-2 -1,0 -4,-5 -4,-5l-25 -2 -12 -1 2 -31c0,0 -5,-8 2,-15 0,0 0,-2 1,-4 2,-1 3,-5 3,-5l8 -9 0 0 -4 6c0,0 -2,4 -2,4 0,0 -4,5 -4,5 0,0 -5,5 5,5 10,0 17,-10 17,-10l9 -15z"/>
  <path class="fil1" d="M295 350c0,0 4,3 8,3 3,0 -8,-3 -8,-3z"/>
  <path class="fil1" d="M300 342c0,0 3,-2 4,0 2,1 -4,0 -4,0z"/>
  <path class="fil1" d="M298 347c0,0 1,1 5,1 4,1 -5,-1 -5,-1z"/>
  <path class="fil15" d="M307 311l1 1c2,1 3,1 5,1 4,0 7,4 8,7 0,1 0,2 0,3 0,2 0,4 0,6 0,2 0,5 0,7 0,3 -1,6 -1,7 1,1 -1,15 -1,15 0,0 -1,12 -4,13 -3,1 -19,1 -19,1l-7 -12 16 1c1,-2 2,-5 2,-8 0,0 0,0 0,-1 0,-5 0,-16 0,-16 0,0 -9,-2 -7,-10 2,-8 7,-15 7,-15z"/>
  <path class="fil17" d="M276 404c0,0 -7,2 -10,1 -2,-1 -8,-5 -8,-5 0,0 -3,-4 -7,-8l0 0 0 0c-3,-4 -6,-7 -6,-9 0,-1 -1,-1 -1,-2l-11 -13c0,0 3,-4 3,-5 0,-1 4,-6 9,-3 2,1 7,5 11,10 7,6 14,13 14,13 0,0 1,0 1,1 2,2 5,6 6,8 -2,-2 -1,12 -1,12z"/>
  <path class="fil18" d="M270 379c-5,5 -13,12 -19,13l0 0 0 0 0 0 -6 -11 -2 -3 0 0 12 -13c7,6 13,13 13,13 0,0 1,0 2,1z"/>
  <path class="fil17" d="M311 389l0 2c0,0 3,11 -3,15 -3,1 -9,2 -15,2 0,-1 0,-1 0,-2 0,-1 0,-1 0,-2 1,0 -2,-19 -3,-19 0,0 -15,17 -24,19l-8 -14 13 -14c0,0 9,-15 11,-16 3,-1 6,-5 6,-5 0,0 11,-9 18,6 7,15 11,27 13,32 0,0 3,5 4,5l0 0c-1,2 -4,3 -6,3 -4,0 -8,-4 -8,-8 0,-1 1,-3 2,-4l0 0z"/>
  <path class="fil1" d="M274 371c2,-1 3,-3 3,-5 2,-3 0,4 -3,6l0 -1z"/>
  <path class="fil20" d="M260 286c0,1 1,1 2,2 2,2 3,4 5,5 1,1 2,2 2,2 0,1 -1,2 -1,3 0,2 3,3 5,4 3,1 4,4 4,6 0,4 -4,8 -5,11 3,0 5,0 7,-1 2,-1 4,-3 4,-4 0,-1 0,-1 1,-1 1,0 4,0 5,-1 2,-1 1,-3 1,-5 -2,-4 -4,-8 -6,-12 0,-1 0,-2 0,-3 0,0 0,-1 0,-1 0,-1 1,-3 2,-4 1,-3 2,-6 3,-10 0,-1 0,-3 -1,-5 -1,-2 -4,-4 -6,-4 -6,-1 -8,1 -13,3 -5,9 -9,12 -9,15z"/>
  <path class="fil1" d="M269 328c1,0 1,0 2,0 1,-4 4,-7 4,-11 0,-3 -1,-5 -4,-7 -2,-1 -4,-2 -4,-4 0,0 0,-1 0,-1 0,0 0,0 0,-1 -1,-1 -1,-1 -2,-2 -2,-1 -4,-3 -5,-5 -1,-1 -2,-2 -2,-3 0,-3 3,-5 6,-6 4,-2 6,-3 9,-4 -4,0 -6,2 -10,4 -3,1 -7,3 -6,6 0,1 1,2 1,3 2,2 4,4 6,5 0,1 1,1 1,2 0,1 0,2 0,3 0,1 3,3 4,4 3,1 4,4 4,6 1,4 -3,7 -4,11z"/>
  <path class="fil1" d="M298 294c0,-9 -8,-17 -17,-17 -9,0 -16,8 -16,17 0,9 7,16 16,16 9,0 17,-7 17,-16z"/>
  <circle class="fil15" cx="282" cy="293" r="17"/>
  <g>
   <path class="fil20" d="M271 285c-1,0 -2,-1 -3,-2 -1,-1 -1,-3 0,-4 1,0 1,-1 2,-1 3,-1 3,-5 5,-8 1,0 2,1 4,1 2,1 5,0 8,1 6,1 10,6 12,12 1,2 2,5 3,8 0,1 1,2 1,3 2,1 5,1 6,4 1,1 1,3 0,4 0,2 0,3 0,5 0,4 1,7 2,11 1,3 3,7 7,8 -2,2 -4,1 -6,0 -2,-1 -3,-3 -4,-5 0,-1 -1,-2 -2,-2 -3,-1 -5,1 -7,2 -2,2 -4,3 -6,3 0,0 0,0 -1,0 -2,0 -3,-1 -4,-3 -1,-3 1,-6 -1,-8 -1,-1 -2,-1 -2,-2 -3,-1 -3,-5 -2,-8 0,-3 0,-6 -1,-9 -5,-5 -11,-9 -17,-11l6 1zm0 0l0 0 0 0z"/>
  </g>
  <g>
   <path class="fil21" d="M302 330c0,0 -1,0 -1,0 -2,0 -4,-2 -4,-4 -1,-2 1,-6 -1,-8 -1,-1 -2,-1 -2,-1 -3,-2 -3,-6 -3,-9 1,-3 1,-6 0,-9 -1,-1 -2,-2 -3,-3 -5,-5 -11,-9 -17,-12l2 1c-1,-1 -3,-1 -3,-2 -1,-1 -1,-3 0,-4 0,-1 1,-1 2,-1 3,-2 3,-6 5,-9 -2,1 -3,2 -4,3 -2,3 -3,7 -6,8 0,1 -1,1 -2,1 -1,1 -1,3 0,5 1,1 3,1 4,2l-2 -1c7,2 13,5 19,9 2,1 3,2 3,4 1,2 1,6 0,9 0,3 0,7 3,8 0,1 1,1 2,2 2,2 0,5 1,8 1,0 2,0 2,-1 1,0 1,0 1,0 2,0 4,2 4,4l0 0z"/>
   <path class="fil21" d="M324 336c-2,-1 -3,-3 -4,-5 1,1 3,3 3,4 2,2 3,4 4,6 2,1 4,1 5,0 -1,2 -2,2 -4,2 -3,0 -5,-2 -5,-4 0,-1 1,-2 1,-3l0 0z"/>
  </g>
  <polygon class="fil11" points="567,397 554,397 526,346 521,338 525,316 527,322 "/>
  <polygon class="fil11" points="445,335 439,343 422,320 415,310 419,304 423,308 "/>
  <path class="fil1" d="M423 308c0,1 0,1 0,2l-1 10 -7 -10 4 -6 4 4z"/>
  <polygon class="fil1" points="527,322 526,346 521,338 525,316 "/>
  <path class="fil11" d="M407 324c0,0 -7,-50 18,-57 0,0 0,-1 1,-1 5,0 58,-6 85,1 0,0 18,3 18,13l-8 121 -14 0 5 -80c0,0 6,-35 -4,-38 -11,-2 -59,-6 -76,-1 0,0 -12,-3 -10,27l-1 17 -14 -2z"/>
  <path class="fil3" d="M448 339c0,0 0,-1 0,-1 0,-2 -1,-5 -3,-6 -4,-3 -16,-9 -16,-9l-3 0 -12 28 1 59 20 25 13 -96z"/>
  <path class="fil1" d="M448 339c0,0 0,-1 0,-1 0,-2 -1,-5 -3,-6 -4,-3 -16,-9 -16,-9l-3 0 -12 28 1 59 20 25 13 -96z"/>
  <path class="fil3" d="M367 401l1 -61c0,0 -2,-23 12,-24 0,0 33,1 47,5 2,1 3,2 3,3 0,1 -1,1 -1,2 -3,5 -8,18 -10,52l0 36 -52 -13z"/>
  <polygon class="fil3" points="437,439 377,438 377,438 347,437 351,398 367,398 419,410 435,435 "/>
  <polygon class="fil1" points="437,439 377,438 377,438 347,437 351,398 367,398 419,410 435,435 "/>
  <polygon class="fil3" points="437,439 377,438 376,412 419,410 435,435 "/>
  <path class="fil22" d="M377 438l-30 -1 4 -39c0,0 9,15 25,13l1 27z"/>
  <path class="fil11" d="M589 470c-1,11 -9,10 -9,10l-1 0 -15 -2 0 -17c0,0 8,-1 15,0 6,2 11,4 10,9z"/>
  <path class="fil23" d="M382 298c0,0 -28,12 -30,16 -2,4 -15,19 -15,19l6 10 27 -22 12 -23z"/>
  <path class="fil24" d="M361 362l-13 -2 -9 11c0,0 -13,7 -15,10 -1,2 -6,11 -8,11 -2,0 -4,3 -4,4 0,1 -8,15 -10,16 -2,1 -5,5 -5,6 0,1 -8,10 -8,10 0,0 -13,20 -14,20 -2,1 -10,14 -11,15 -2,2 -8,3 -7,5 1,1 14,18 13,23 0,0 9,-7 10,-10 0,-2 12,-14 12,-14l62 -64 11 -41 -4 0z"/>
  <path class="fil1" d="M395 383c0,0 3,29 -6,33 -8,5 -14,4 -15,6 -2,2 -12,4 -13,6 -1,1 -29,17 -29,17 0,0 -19,11 -22,13 -3,3 -19,10 -21,13 -3,4 -20,14 -20,14 0,0 -5,-15 -11,-16 0,0 14,-3 15,-5 0,-3 5,-5 5,-5 0,0 19,-12 20,-14 1,-3 6,-6 6,-6 0,0 7,-11 10,-12 3,-1 20,-19 20,-19 0,0 12,-6 14,-8 1,-2 23,-14 23,-14l-25 -31 8 -3 23 7 5 7 13 17z"/>
  <path class="fil24" d="M397 383c0,0 2,29 -6,34 -9,4 -14,4 -16,6 -2,1 -12,3 -13,5 -1,2 -28,17 -28,17 0,0 -19,11 -22,14 -3,2 -19,9 -22,13 -3,3 -20,14 -20,14 0,0 -5,-16 -11,-17 0,0 14,-3 15,-5 1,-2 5,-5 5,-5 0,0 20,-11 20,-14 1,-2 6,-6 6,-6 0,0 8,-11 11,-12 3,-1 20,-19 20,-19 0,0 12,-6 13,-8 1,-2 -10,-29 -10,-29l8 -16 8 -2 24 6 4 8 14 16z"/>
  <path class="fil25" d="M425 307l-20 13c0,0 -23,-8 -14,-12 6,-2 9,-14 9,-22 1,-4 1,-7 1,-7 0,0 26,0 21,8 -1,2 -1,5 -1,7 0,0 0,1 0,1 0,6 4,12 4,12z"/>
  <path class="fil1" d="M421 295c-2,0 -3,1 -5,1 -6,0 -12,-4 -16,-10 1,-4 1,-7 1,-7 0,0 26,0 21,8 -1,2 -1,5 -1,7 0,0 0,1 0,1l0 0z"/>
  <path class="fil25" d="M434 282c-2,8 -9,13 -18,13 -10,0 -18,-8 -18,-18 0,-11 8,-19 18,-19 11,0 19,8 19,19 0,1 0,2 0,3 0,1 -1,1 -1,2z"/>
  <path class="fil1" d="M397 299c0,0 -3,0 -3,5 -1,4 -4,4 -4,4l-15 16c0,0 -7,16 -7,17 0,1 -1,3 -1,5 0,1 0,6 -1,5 -2,0 -4,1 -4,3 0,2 -11,9 -10,10 0,2 30,18 30,18l13 10 12 -22 10 -30 5 -18 4 -5 -2 -12c0,0 -1,-5 -3,-4 -2,1 -7,7 -12,7 -6,1 -9,1 -10,0 -1,-1 -8,-2 -2,-9z"/>
  <path class="fil1" d="M398 298c0,0 -4,0 -4,4 0,5 -3,5 -3,5l-16 16c0,0 -6,16 -6,17 0,0 -2,3 -2,4 1,2 0,6 -1,6 -1,-1 -3,1 -3,3 0,2 -11,8 -11,10 1,1 31,17 31,17l12 10 12 -22 10 -30 5 -17 5 -5 -2 -12c0,0 -2,-5 -4,-4 -1,0 -7,6 -12,7 -5,0 -8,1 -9,0 -2,-1 -1,-3 -2,-9z"/>
  <path class="fil26" d="M398 298c0,0 -4,0 -4,5 0,5 -4,4 -4,4l-15 16c0,0 -7,16 -7,17 1,1 -1,4 -1,5 1,1 0,6 -1,5 -1,0 -4,1 -4,3 0,2 -10,9 -10,10 1,2 31,18 31,18l12 10 12 -22 10 -30 5 -18 5 -5 -2 -12c0,0 -2,-5 -4,-4 -1,1 -7,7 -12,7 -5,1 -8,1 -9,0 -2,-1 -1,-2 -2,-9z"/>
  <path class="fil1" d="M398 298c-2,0 -3,0 -5,-1 -2,-1 -9,0 -9,0 0,0 -8,0 -9,3 -2,2 -8,14 -10,15 -2,1 -15,22 -18,23 -2,2 -14,24 -14,24 0,0 9,-4 12,2 0,0 1,0 1,1 3,6 7,1 7,1 0,0 12,-11 13,-13 1,-2 8,-16 10,-20 2,-4 17,-24 18,-25 0,-1 4,-10 4,-10z"/>
  <path class="fil23" d="M398 298c-2,0 -4,-1 -6,-1 -2,-1 -9,0 -9,0 0,0 -8,0 -9,2 -2,3 -8,15 -10,16 -2,1 -15,21 -18,23 -2,2 -14,24 -14,24 0,0 9,-4 12,2 1,0 1,0 1,0 3,7 7,2 7,2 0,0 12,-11 13,-13 1,-2 8,-17 10,-21 2,-4 17,-23 18,-24 0,-1 5,-10 5,-10z"/>
  <path class="fil1" d="M421 299c0,0 10,7 12,9 1,3 14,10 14,10 0,0 5,9 4,12 0,3 -1,6 -1,8 1,2 1,2 1,4 -1,2 -1,3 0,5 2,2 -20,8 -20,8 0,0 -2,1 -3,2 0,1 -16,37 -19,43 -2,5 -9,28 -15,28 -7,1 -2,0 -2,0 0,0 1,-18 -3,-24 -4,-7 4,-31 4,-31 0,0 25,-72 28,-74z"/>
  <path class="fil23" d="M421 299c0,0 11,7 13,10 1,2 14,9 14,9 0,0 5,9 4,12 0,4 -1,7 -1,8 1,2 1,2 1,4 -1,3 -1,3 0,5 2,2 -20,9 -20,9 0,0 -2,0 -3,1 0,2 -16,37 -19,43 -2,6 -9,28 -16,29 -6,0 -1,0 -1,0 0,0 1,-19 -3,-25 -4,-6 4,-31 4,-31 0,0 24,-72 27,-74z"/>
  <path class="fil25" d="M434 372c0,0 -22,5 -23,6 -1,1 -19,12 -9,18 9,5 25,-8 25,-8l12 -7 -5 -9z"/>
  <path class="fil23" d="M444 342c0,0 8,5 8,5 0,0 4,12 5,15 0,3 2,8 2,9 0,1 3,7 -1,9 -4,3 -8,3 -10,4 -1,2 -14,7 -15,8 -2,0 7,-19 -4,-22 0,0 8,1 9,0 0,-2 0,-5 -1,-7 -2,-1 -8,-8 -8,-8l15 -13z"/>
  <path class="fil1" d="M435 280c-1,0 -2,-1 -3,-2 0,-2 -1,-3 -3,-4 -1,0 -2,0 -2,0 -1,-1 -1,-2 -1,-2 -1,-2 -2,-3 -4,-3 0,0 0,0 0,0 -2,0 -4,3 -7,2 -1,0 -2,-1 -3,0 -2,1 -3,3 -4,6 -1,2 -2,5 -3,7 0,1 -1,2 -2,2 -1,-1 -1,-3 -1,-3 -1,-1 -1,-1 -2,-1 -1,-2 -1,-5 -1,-8 0,-10 8,-18 18,-18 10,0 19,8 19,18 0,2 -1,4 -1,6l0 0z"/>
  <path class="fil27" d="M401 281c1,1 2,0 2,-1 1,-3 2,-5 3,-8 0,0 0,0 1,0 1,0 1,0 2,0 3,1 5,-1 7,-1 1,1 1,2 1,4 0,0 0,0 0,0 0,1 0,2 1,2 1,1 2,1 3,1 1,0 2,2 3,4 0,1 2,3 4,2 0,0 0,-1 1,-1 1,0 2,0 3,0 1,-1 0,-2 0,-3 -1,-1 -2,-2 -1,-3 1,-2 1,-3 1,-5 0,-2 -1,-3 -2,-5 0,0 -1,-1 -2,-1 -1,-2 -2,-3 -3,-5 0,0 -1,0 -2,-1 -2,0 -3,1 -4,1 -4,0 -8,-3 -12,-4 -1,0 -1,0 -1,0 -1,0 -2,0 -2,0 -1,1 -1,2 -2,3 0,2 -2,4 -5,5 -2,1 -5,1 -6,4 -1,2 0,4 0,6 -1,2 -2,4 -3,5 -1,2 -2,4 -1,5 1,1 1,2 2,2 1,0 4,0 5,1 1,1 5,-7 7,-7z"/>
  <path class="fil1" d="M443 363c0,0 8,2 10,4 2,3 -10,-4 -10,-4z"/>
  <path class="fil1" d="M439 355c0,0 8,2 9,3 1,1 -9,-3 -9,-3z"/>
  <path class="fil1" d="M442 334c0,0 6,3 7,5 0,1 -7,-5 -7,-5z"/>
  <path class="fil1" d="M362 405c1,0 16,11 15,12 -1,0 -15,-12 -15,-12z"/>
  <path class="fil1" d="M362 412c0,0 9,4 8,6 -2,2 -8,-6 -8,-6z"/>
  <g>
   <path class="fil21" d="M396 265c1,-2 0,-4 0,-6 0,0 0,0 0,0 -1,2 0,4 0,7 0,-1 0,-1 0,-1z"/>
   <path class="fil21" d="M440 271c0,1 -1,2 -1,2 0,0 1,-1 1,-2l0 0z"/>
   <path class="fil21" d="M441 278c-1,0 -2,0 -3,0 0,0 -1,1 -1,1 -2,0 -3,-1 -4,-3 -1,-1 -2,-3 -3,-3 -1,0 -2,0 -3,-1 0,0 0,-1 0,-2 -1,-1 -3,-2 -5,-2 0,0 0,0 0,0 -2,0 -4,2 -6,2 -1,0 -2,-1 -3,-1 0,1 -1,2 -1,2 0,0 0,-1 1,-1 0,0 0,0 1,-1 1,0 2,1 3,1 2,1 4,-2 6,-2 1,2 1,3 1,5 0,0 0,0 0,0 0,1 0,1 1,2 1,1 2,0 3,1 1,0 2,2 3,3 1,2 2,3 4,3 0,-1 0,-1 1,-1 1,0 2,0 3,0 0,-1 0,-1 0,-2 0,0 0,0 0,0 0,0 0,0 0,0 0,-1 1,-1 1,-1 1,0 1,0 1,0l0 0z"/>
   <path class="fil21" d="M403 279c0,1 -1,2 -2,1 -1,0 -1,-2 -1,-3 -1,-1 -4,0 -5,-1 1,1 1,2 2,2 2,0 4,0 5,1 1,1 0,3 1,3 1,0 2,-1 3,-2 0,-1 1,-2 1,-3 -1,1 -2,1 -4,2l0 0z"/>
  </g>
  <path class="fil1" d="M372 314c0,0 -6,9 -5,11 0,2 5,-11 5,-11z"/>
  <path class="fil1" d="M373 344c0,0 3,1 4,2 1,2 -4,-2 -4,-2z"/>
  <path class="fil1" d="M380 353c0,0 7,2 7,3 1,1 -7,-3 -7,-3z"/>
  <path class="fil1" d="M381 363c0,0 6,0 7,3 1,2 -7,-3 -7,-3z"/>
  <path class="fil1" d="M589 470c-1,11 -9,10 -9,10l-1 0c-2,-3 -3,-6 -3,-9 0,0 0,0 0,0 0,-4 1,-7 3,-10 6,2 11,4 10,9z"/>
  <path class="fil13" d="M358 321c-13,0 -24,15 -24,34 0,18 11,33 24,33 14,0 25,-15 25,-33 0,-19 -11,-34 -25,-34zm-3 60c-10,0 -19,-11 -19,-24 0,-14 9,-24 19,-24 10,0 19,10 19,24 0,13 -9,24 -19,24z"/>
  <polygon class="fil13" points="360,365 371,376 375,366 359,356 "/>
  <polygon class="fil3" points="377,253 387,254 390,258 385,284 373,325 365,353 359,370 356,393 352,408 342,419 320,393 317,385 308,367 330,357 354,355 365,326 375,292 "/>
  <g>
   <polygon class="fil3" points="173,374 160,484 326,477 306,423 275,402 347,404 348,373 318,367 259,362 214,360 172,374 "/>
  </g>
  <path class="fil1" d="M173 374l-13 110 166 -7 -20 -54 -31 -21 72 2 1 -31 -30 -6 -59 -5 -45 -2 -42 14m1 0z"/>
  <path class="fil13" d="M399 484c0,27 -9,52 -34,50 -32,-1 -34,-23 -34,-50 0,-28 15,-48 34,-48 19,0 34,20 34,48z"/>
  <path class="fil1" d="M400 484c0,-21 -10,-38 -23,-45 -16,3 -29,22 -29,47 0,23 2,41 20,48 23,1 32,-24 32,-50z"/>
  <polygon class="fil3" points="432,441 422,452 440,449 453,437 464,414 481,404 521,409 558,410 572,398 557,396 541,396 502,395 456,394 446,419 439,437 "/>
  <path class="fil3" d="M566 486c-1,1 -27,5 -27,5l-72 14 -124 1 -15 -12 -7 1 -1 0 -102 19 -1 -1 -28 -4 -146 -20 2 -21 1 -13 2 -26 1 -7 13 -1 6 0 95 -9 12 -1 7 -1 67 -9 99 3 0 -31 39 -119c8,1 8,7 8,7l-33 112 0 70c68,7 71,-8 82,-3l13 -42 115 0c5,6 -6,88 -6,88z"/>
  <polygon class="fil3" points="279,423 316,502 328,506 331,493 317,450 303,424 "/>
  <polygon class="fil28" points="279,423 316,502 328,506 331,493 317,450 303,424 "/>
  <ellipse class="fil13" cx="255" cy="510" rx="66" ry="75"/>
  <path class="fil1" d="M279 440c-35,2 -62,35 -62,75 0,32 17,59 43,70 34,-2 62,-35 62,-75 0,-32 -18,-60 -43,-70z"/>
  <path class="fil3" d="M77 378l-3 16 -10 47 -43 -4c0,0 -3,-8 4,-11 0,0 2,-27 10,-35 1,-1 2,-2 3,-2l39 -11z"/>
  <path class="fil22" d="M74 394l-10 47 -43 -4c0,0 -3,-8 4,-11 0,0 2,-27 10,-35l39 3z"/>
  <path class="fil3" d="M175 383c5,9 -8,95 -8,95l-107 -17 4 -76c2,-13 10,-15 10,-15 38,-19 124,-23 124,-23 78,3 150,26 150,26 -89,-13 -173,10 -173,10z"/>
  <path class="fil1" d="M167 478l-107 -17 4 -76c2,-13 10,-15 10,-15 0,0 78,-7 101,13 5,9 -8,95 -8,95z"/>
  <path class="fil3" d="M155 473l-88 -15 3 -64c2,-12 8,-13 8,-13 0,0 65,-6 84,11 5,8 -7,81 -7,81z"/>
  <path class="fil1" d="M160 420c0,-12 -5,-22 -12,-22 -7,0 -12,10 -12,22 0,12 5,22 12,22 7,0 12,-10 12,-22z"/>
  <ellipse class="fil11" cx="148" cy="420" rx="12" ry="22"/>
  <path class="fil12" d="M150 403c0,0 -5,1 -3,8 3,6 3,10 3,10 0,0 5,2 5,-6 0,-9 -5,-12 -5,-12z"/>
  <path class="fil1" d="M94 412c0,-12 -5,-21 -11,-21 -6,0 -11,9 -11,21 0,11 5,20 11,20 6,0 11,-9 11,-20z"/>
  <ellipse class="fil11" cx="83" cy="411" rx="11" ry="21"/>
  <path class="fil12" d="M84 395c0,0 -4,0 -2,7 3,7 3,10 3,10 0,0 5,3 5,-6 0,-9 -6,-11 -6,-11z"/>
  <path class="fil1" d="M134 402c-1,8 -5,68 -5,68l-6 -1 -4 0 -5 -1 -1 0 -20 -4 4 -64c1,-4 4,-7 8,-7 0,0 0,0 0,0 1,0 1,0 1,0 0,0 0,0 0,0 1,0 3,0 4,0 1,0 2,0 2,0 2,0 4,1 6,1 1,0 2,0 3,1 2,0 3,0 5,1 1,0 2,0 2,0 4,2 6,3 6,6z"/>
  <path class="fil3" d="M105 393l-3 72 -3 -1 4 -71c1,0 2,0 2,0 0,0 0,0 0,0l0 0z"/>
  <path class="fil3" d="M112 393l-3 73 -4 0 5 -73c1,0 2,0 2,0z"/>
  <path class="fil3" d="M121 395l-6 73 -2 0 0 0 5 -74c1,0 2,0 3,1z"/>
  <path class="fil3" d="M128 396l-5 73 0 0 -4 0 0 0 7 -73c1,0 2,0 2,0z"/>
  <path class="fil1" d="M47 453c0,0 -7,-38 10,-40 17,-2 72,2 70,18 -2,15 -4,39 -4,39l-11 -3c0,0 9,-35 -5,-37 -13,-1 -46,-5 -46,-5 0,0 -8,-1 -3,30l-11 -2z"/>
  <path class="fil11" d="M47 456c0,0 -7,-40 10,-42 17,-2 72,2 70,18 -2,15 -4,39 -4,39l-11 -3c0,0 9,-35 -5,-36 -13,-2 -46,-6 -46,-6 0,0 -8,1 -3,33l-11 -3z"/>
  <path class="fil3" d="M343 506l-15 0c-11,-47 -29,-77 -29,-77 -6,-3 -71,-3 -71,-3 -7,2 -8,23 -8,23 0,0 5,5 0,8 -3,2 -11,2 -20,2 -12,-1 -26,-3 -33,-5 -13,-4 -2,-11 -2,-11 0,0 1,-3 3,-16 0,-8 3,-15 7,-22 0,-1 1,-1 1,-1 0,-1 1,-1 2,-2 17,-7 100,0 100,0l30 10c1,0 3,2 4,6 10,21 31,88 31,88z"/>
  <path class="fil1" d="M343 506l-15 0c-11,-47 -29,-77 -29,-77 -6,-3 -71,-3 -71,-3 -7,2 -8,23 -8,23 0,0 5,5 0,8 -3,2 -11,2 -20,2 -12,-1 -26,-3 -33,-5 -13,-4 -2,-11 -2,-11 0,0 1,-3 3,-16 0,-8 3,-15 7,-22 0,-1 1,-1 1,-1 0,-1 1,-1 2,-2 17,-7 100,0 100,0l30 10c1,0 3,2 4,6 10,21 31,88 31,88z"/>
  <path class="fil3" d="M312 418c-28,-11 -106,-5 -106,-5 -8,-7 -24,-8 -31,-8 0,-1 1,-1 1,-1 0,-1 1,-1 2,-2 17,-7 100,0 100,0l30 10c1,0 3,2 4,6z"/>
  <path class="fil3" d="M210 416c-1,6 -9,31 -9,31 0,4 -1,8 -1,12 -12,-1 -26,-3 -33,-5 -13,-4 -2,-11 -2,-11 0,0 1,-3 3,-16 0,-1 1,-1 2,-1 19,-21 42,-15 40,-10z"/>
  <path class="fil22" d="M210 416c-1,6 -9,31 -9,31 0,4 -1,8 -1,12 -12,-1 -26,-3 -33,-5 -13,-4 -2,-11 -2,-11 0,0 1,-3 3,-16 0,-1 1,-1 2,-1 19,-21 42,-15 40,-10z"/>
  <path class="fil3" d="M229 259c-8,1 -12,17 -12,17l-21 72 152 25 39 -119c-36,-16 -158,5 -158,5zm122 77c0,0 -1,6 -7,7l-98 -4 -21 -1 -6 0 -1 0c0,0 -7,2 -6,-5 0,0 8,-60 23,-64 0,0 1,0 4,-1 4,-1 11,-2 19,-3 4,0 8,-1 12,-1 10,-2 22,-2 32,-1 0,0 73,-7 67,9 0,0 -15,59 -18,64l0 0z"/>
  <path class="fil3" d="M219 338l-1 0c0,0 -7,2 -6,-5 0,0 8,-60 23,-64 0,0 1,0 4,-1 -5,10 -22,46 -20,70z"/>
  <path class="fil1" d="M219 338l-1 0c0,0 -7,2 -6,-5 0,0 8,-60 23,-64 0,0 1,0 4,-1 -5,10 -22,46 -20,70z"/>
  <path class="fil1" d="M232 486c-2,3 -5,5 -8,5 -1,0 -1,0 -1,0l-3 0 -29 -2 -10 0 -10 -1 -126 -20 1 -13 15 2 6 1 89 13 11 1 6 1 24 0 26 0c3,1 4,3 5,5 3,1 4,4 4,6 0,1 0,1 0,2l0 0z"/>
  <path class="fil11" d="M232 487c-2,3 -5,5 -8,5 -1,0 -1,0 -1,0l-42 -2 -10 -1 -134 -22 -11 -1 -6 -1c-11,-3 -8,-14 -8,-14 1,-5 21,-10 27,-10 4,0 5,7 5,11 0,2 0,4 0,4l6 1 123 17 50 0c0,0 0,0 1,0 3,0 7,2 8,6 1,1 1,2 1,3 0,1 0,3 -1,4l0 0z"/>
  <path class="fil1" d="M30 448c0,0 5,7 14,8 0,0 -4,-7 -14,-8z"/>
  <path class="fil1" d="M29 467c0,0 -18,0 -18,9 0,10 11,11 11,11l158 31 45 1c0,0 16,-13 0,-19l-46 2 -151 -28c0,0 4,-6 1,-7z"/>
  <path class="fil11" d="M225 520l-45 -1 -140 -27 -11 -2 -7 -2c0,0 -11,-1 -11,-11 0,-7 9,-8 14,-9 2,0 4,0 4,0 3,2 -1,7 -1,7l6 1 145 27 46 -1c16,5 0,18 0,18z"/>
  <path class="fil11" d="M42 459l9 -4 5 0 0 40 -15 -3 -6 -4 -3 -17c0,0 1,-7 1,-7 1,-1 9,-5 9,-5z"/>
  <path class="fil1" d="M42 459l9 -4 5 0 0 40 -15 -3 -6 -4 -3 -17c0,0 1,-7 1,-7 1,-1 9,-5 9,-5z"/>
  <path class="fil1" d="M40 492l0 0 -11 -2 0 0c-5,-9 -6,-16 -4,-22 2,0 4,0 4,0 3,2 -1,7 -1,7l6 1c-1,8 4,15 6,16z"/>
  <path class="fil1" d="M55 455c-2,0 -4,1 -5,2 -7,3 -11,7 -13,10l-11 -1c5,-10 16,-14 16,-14l2 0 11 3z"/>
  <path class="fil11" d="M43 452c0,0 -29,11 -13,38l11 2c0,0 -21,-24 15,-37l-13 -3z"/>
  <polygon class="fil11" points="112,465 123,464 121,508 104,504 96,501 93,492 91,484 96,476 103,471 "/>
  <polygon class="fil1" points="112,465 123,464 121,508 104,504 96,501 93,492 91,484 96,476 103,471 "/>
  <ellipse class="fil11" cx="111" cy="487" rx="5" ry="9"/>
  <path class="fil11" d="M73 511c-1,-7 -7,-9 -7,-9 0,0 -11,-3 -11,9 0,0 0,8 5,10l0 9c0,0 1,8 -4,7 -4,-1 -4,-8 -4,-8 0,0 -2,-7 -8,-3 0,0 -1,4 2,6 1,1 1,4 1,6 3,-3 4,-7 4,-11l1 -11c0,0 23,3 21,-5zm-35 34c-4,0 -6,-3 -6,-6 0,-4 2,-7 6,-7 3,0 6,3 6,7 -2,-3 -4,-6 -4,-10 0,-8 7,-14 14,-14 4,0 8,1 10,4l-26 26z"/>
  <path class="fil13" d="M62 499c-1,0 -2,1 -2,3 0,0 0,0 0,1 1,2 3,5 3,6 -1,1 2,0 3,0 0,-1 5,0 5,-4 1,-4 -2,-5 -2,-5l1 -8 -7 -1 0 7 -1 1z"/>
  <path class="fil1" d="M62 499c-1,0 -2,1 -2,3 0,0 0,0 0,1 1,2 3,5 3,6 -1,1 2,0 3,0 0,-1 5,0 5,-4 1,-4 -2,-5 -2,-5l1 -8 -7 -1 0 7 -1 1z"/>
  <path class="fil1" d="M64 499c0,0 2,8 1,8 -1,1 -1,-8 -1,-8z"/>
  <path class="fil1" d="M66 497c0,0 3,8 2,8 -1,1 -2,-8 -2,-8z"/>
  <path class="fil13" d="M95 472l-4 25c0,0 -5,-1 -8,-1 0,-1 -1,-1 -1,-1 -1,0 -1,0 -1,0l0 0c-2,0 -4,1 -4,0 0,0 -1,0 -1,0l0 0c0,0 -1,0 -2,0 0,0 0,0 0,0 -1,0 -1,0 -1,0 -1,0 -2,0 -4,1 0,0 -1,0 -1,-1 -1,0 -1,-1 -2,-1l0 0c-1,0 -2,0 -3,0 -1,0 -1,0 -1,-1 0,0 -1,0 -2,-1 -2,0 -3,0 -3,-1 0,0 0,0 -1,0 0,0 -1,0 -2,1l0 0c0,0 -1,0 -1,-1 0,0 -1,0 -2,0 0,0 -1,1 -1,1 -1,0 -1,0 -1,0 -1,-1 -3,1 -4,-1 0,-2 -9,-12 2,-26 0,0 3,0 5,1 1,0 2,0 2,0l0 0c1,1 3,1 4,1 0,0 1,0 1,0 0,1 1,1 2,1 1,0 2,0 2,0l0 0c1,0 4,0 5,1l0 0c0,0 1,0 3,-1l0 0c1,0 2,0 2,1 0,0 1,0 1,0 0,1 1,1 3,1 0,0 0,0 0,0 2,0 5,0 5,0l13 2z"/>
  <path class="fil1" d="M51 491c0,0 -1,1 -1,1 -9,-13 -2,-22 2,-26 1,0 2,0 2,0 -8,10 -4,21 -3,25z"/>
  <path class="fil1" d="M56 491c0,0 -1,0 -2,1l0 0c-7,-13 0,-22 4,-25 1,0 2,0 2,0 -8,9 -5,19 -4,24z"/>
  <path class="fil1" d="M63 494c-1,0 -1,0 -1,-1 0,0 -1,0 -2,-1 -6,-11 -1,-19 3,-23 1,0 2,-1 3,-1l0 0c-9,10 -5,22 -3,26z"/>
  <path class="fil1" d="M69 496c0,0 -1,0 -1,-1 -1,0 -1,-1 -2,-1l0 0c-7,-12 1,-21 4,-25l0 0c0,0 2,0 3,0 -10,10 -5,24 -4,27z"/>
  <path class="fil1" d="M76 495c0,0 -1,0 -2,0 -7,-12 0,-21 3,-25 1,0 1,0 1,0 1,0 1,0 2,0 -9,9 -5,21 -4,25z"/>
  <path class="fil1" d="M83 496c0,-1 -1,-1 -1,-1 -1,0 -1,0 -1,0l0 0c-7,-11 -2,-20 2,-24 0,0 0,0 1,0 -6,10 -2,21 -1,25z"/>
  <ellipse class="fil13" cx="276" cy="514" rx="32" ry="48"/>
  <path class="fil1" d="M299 514c0,-21 -11,-38 -24,-38 -13,0 -23,17 -23,38 0,22 10,39 23,39 13,0 24,-17 24,-39z"/>
  <ellipse class="fil12" cx="275" cy="513" rx="24" ry="39"/>
  <ellipse class="fil13" cx="280" cy="487" rx="3" ry="5"/>
  <ellipse class="fil13" cx="291" cy="529" rx="3" ry="5"/>
  <ellipse class="fil13" cx="261" cy="509" rx="3" ry="5"/>
  <ellipse class="fil13" cx="269" cy="537" rx="3" ry="5"/>
  <path class="fil3" d="M514 425c0,0 23,62 22,66 0,0 10,6 12,5 3,-2 1,-29 1,-29l-5 -24 -5 -15 -25 -3z"/>
  <path class="fil28" d="M514 425c0,0 23,62 22,66 0,0 10,6 12,5 3,-2 1,-29 1,-29l-5 -24 -5 -15 -25 -3z"/>
  <ellipse class="fil13" cx="295" cy="503" rx="3" ry="5"/>
  <ellipse class="fil13" cx="280" cy="515" rx="8" ry="11"/>
  <path class="fil13" d="M540 508c0,36 -12,69 -45,65 -42,0 -45,-29 -45,-65 0,-36 20,-62 45,-62 25,0 45,26 45,62z"/>
  <path class="fil1" d="M540 508c0,-27 -12,-50 -29,-58 -22,4 -39,29 -39,62 0,29 3,53 27,62 30,1 41,-31 41,-66z"/>
  <path class="fil1" d="M558 493c0,0 -6,5 -10,2 0,0 -8,-65 -18,-65l-35 -1c0,0 -4,2 -6,10l-22 64 -124 2 -10 -20 103 1 0 0c0,-2 17,-64 29,-71l0 0c0,0 1,-1 1,-1 1,0 43,-5 57,-2 0,0 15,4 18,8l0 0c1,1 6,7 8,25l9 48z"/>
  <path class="fil3" d="M558 494c0,0 -6,5 -10,2 0,0 -8,-65 -18,-65l-35 0c0,0 -4,1 -6,9l-22 65 -124 1 -10 -19 103 0 0 0c0,-2 17,-63 29,-71l0 0c0,0 1,0 1,-1 1,0 43,-5 57,-1 0,0 15,3 18,7l0 0c1,1 6,7 8,25l9 48z"/>
  <path class="fil1" d="M558 494c0,0 -6,5 -10,2 0,0 -8,-65 -18,-65l-35 0c0,0 -4,1 -6,9l-22 65 -124 1 -10 -19 103 0 0 0c0,-2 17,-63 29,-71l0 0c0,0 1,0 1,-1 1,0 43,-5 57,-1 0,0 15,3 18,7l0 0c1,1 6,7 8,25l9 48z"/>
  <path class="fil3" d="M482 424c-3,5 -29,75 -29,75l-17 -12 0 0c0,-2 17,-63 29,-71 7,1 19,4 17,8z"/>
  <path class="fil3" d="M448 392l-14 46 -73 -2 1 7c0,0 57,8 82,-3l13 -42 115 0 -22 -5 -102 -1z"/>
  <path class="fil22" d="M448 392l-14 46 -73 -2 1 7c0,0 57,8 82,-3l13 -42 115 0 -22 -5 -102 -1z"/>
  <path class="fil1" d="M105 464c0,0 -39,20 -10,39l8 1c0,0 -29,-20 19,-40l-17 0z"/>
  <path class="fil11" d="M106 464c0,0 -39,20 -10,39l8 1c0,0 -29,-20 19,-40l-17 0z"/>
  <ellipse class="fil13" cx="512" cy="513" rx="22" ry="37"/>
  <path class="fil1" d="M527 514c0,-16 -7,-30 -15,-30 -9,0 -16,14 -16,30 0,17 7,31 16,31 8,0 15,-14 15,-31z"/>
  <ellipse class="fil12" cx="512" cy="513" rx="16" ry="30"/>
  <ellipse class="fil13" cx="514" cy="493" rx="2" ry="4"/>
  <ellipse class="fil13" cx="522" cy="525" rx="2" ry="4"/>
  <ellipse class="fil13" cx="502" cy="510" rx="2" ry="4"/>
  <ellipse class="fil13" cx="507" cy="532" rx="2" ry="4"/>
  <ellipse class="fil13" cx="525" cy="505" rx="2" ry="4"/>
  <ellipse class="fil13" cx="514" cy="514" rx="5" ry="9"/>
  <path class="fil1" d="M195 347c0,0 67,3 153,26l-153 -26z"/>
  <path class="fil11" d="M512 231c0,0 -4,1 -2,5 2,5 2,8 2,8 0,0 4,2 4,-5 0,-6 -4,-8 -4,-8z"/>
  <path class="fil25" d="M336 327l0 1c-1,0 -2,2 -2,3 0,4 -1,11 4,10 2,-1 2,-3 2,-5 0,0 0,0 0,0l0 0c0,0 0,0 0,0 0,-2 -1,-3 -2,-4l6 -6c0,0 -1,0 -2,0 0,0 0,0 0,0l-3 0c-2,0 -3,0 -3,1l0 0z"/>
  <path class="fil3" d="M375 263l-10 52 -8 16 5 9 11 -26c0,0 12,-37 12,-39 0,-1 -10,-12 -10,-12z"/>
 </g>
</svg>
