<?xml version="1.0" encoding="UTF-8"?>
<!DOCTYPE svg PUBLIC "-//W3C//DTD SVG 1.1//EN" "http://www.w3.org/Graphics/SVG/1.1/DTD/svg11.dtd">
<!-- Creator: CorelDRAW X7 -->
<svg xmlns="http://www.w3.org/2000/svg" xml:space="preserve" width="3832px" height="2134px" version="1.1" style="shape-rendering:geometricPrecision; text-rendering:geometricPrecision; image-rendering:optimizeQuality; fill-rule:evenodd; clip-rule:evenodd"
viewBox="0 0 1596 889"
 xmlns:xlink="http://www.w3.org/1999/xlink">
 <defs>
  <style type="text/css">
   <![CDATA[
    .fil11 {fill:none}
    .fil2 {fill:#3F3D56}
    .fil19 {fill:#4B4B5B}
    .fil4 {fill:#636780}
    .fil14 {fill:#985C7E}
    .fil18 {fill:#CC8294}
    .fil9 {fill:#DCE0ED}
    .fil22 {fill:#E7C7CA}
    .fil15 {fill:#ECB4B6}
    .fil10 {fill:#F0F0F4}
    .fil21 {fill:#FF718D}
    .fil12 {fill:white}
    .fil20 {fill:black;fill-opacity:0.031373}
    .fil17 {fill:black;fill-opacity:0.050980}
    .fil16 {fill:black;fill-opacity:0.070588}
    .fil8 {fill:black;fill-opacity:0.101961}
    .fil1 {fill:#3F3D56;fill-opacity:0.101961}
    .fil7 {fill:white;fill-opacity:0.101961}
    .fil3 {fill:black;fill-opacity:0.200000}
    .fil6 {fill:white;fill-opacity:0.200000}
    .fil23 {fill:white;fill-opacity:0.301961}
    .fil5 {fill:black;fill-opacity:0.400000}
    .fil0 {fill:#3F3D56;fill-opacity:0.631373}
    .fil13 {fill:url(#id0)}
   ]]>
  </style>
  <linearGradient id="id0" gradientUnits="userSpaceOnUse" x1="844.173" y1="838.132" x2="844.173" y2="227.254">
   <stop offset="0" style="stop-opacity:0.25098; stop-color:gray"/>
   <stop offset="0.541176" style="stop-opacity:0.121569; stop-color:gray"/>
   <stop offset="1" style="stop-opacity:0.101961; stop-color:gray"/>
  </linearGradient>
 </defs>
 <g id="Layer_x0020_1">
  <metadata id="CorelCorpID_0Corel-Layer"/>
  <path class="fil0" d="M1568 651c0,-131 -351,-238 -784,-238 -433,0 -784,107 -784,238 0,131 351,238 784,238 433,0 784,-107 784,-238z"/>
  <path class="fil1" d="M1123 832c0,-13 -99,-24 -222,-24 -123,0 -222,11 -222,24 0,14 99,25 222,25 123,0 222,-11 222,-25z"/>
  <polygon class="fil1" points="979,500 1035,500 1035,444 979,444 "/>
  <polygon class="fil1" points="979,616 1035,616 1035,560 979,560 "/>
  <path class="fil1" d="M1035 675l0 44c-19,-1 -37,-3 -56,-6l0 -38 56 0z"/>
  <polygon class="fil1" points="613,429 808,429 808,404 613,404 "/>
  <polygon class="fil1" points="613,506 808,506 808,480 613,480 "/>
  <path class="fil1" d="M808 557l0 25 -145 0c-6,-4 -12,-9 -18,-14 -4,-4 -9,-7 -13,-11l176 0z"/>
  <path class="fil1" d="M808 634l0 25 -15 0c-18,-8 -34,-16 -51,-25l66 0z"/>
  <polygon class="fil1" points="342,537 378,537 378,501 342,501 "/>
  <polygon class="fil1" points="1128,464 1164,464 1164,427 1128,427 "/>
  <polygon class="fil1" points="1128,553 1164,553 1164,517 1128,517 "/>
  <polygon class="fil1" points="1267,553 1303,553 1303,517 1267,517 "/>
  <polygon class="fil1" points="1128,643 1164,643 1164,607 1128,607 "/>
  <polygon class="fil1" points="1267,643 1303,643 1303,607 1267,607 "/>
  <polygon class="fil1" points="1128,719 1128,696 1164,696 1164,716 "/>
  <path class="fil1" d="M190 483c0,0 0,0 1,1l6 0 0 9c1,1 2,1 3,2l0 -11 10 0 0 18 -4 0c0,1 1,1 1,1l92 0 0 -20 -109 0zm32 19l-10 0 0 -18 10 0 0 18zm13 0l-11 0 0 -18 11 0 0 18zm12 0l-10 0 0 -18 10 0 0 18zm12 0l-10 0 0 -18 10 0 0 18zm13 0l-11 0 0 -18 11 0 0 18zm12 0l-10 0 0 -18 10 0 0 18zm13 0l-11 0 0 -18 11 0 0 18z"/>
  <path class="fil1" d="M258 543c1,1 2,1 3,2l0 -1 11 0 0 6 2 1 0 -7 10 0 0 11 2 1 0 -12 11 0 0 16 2 1 0 -18 -41 0z"/>
  <path class="fil1" d="M686 0c0,0 -31,-2 -27,20 0,0 0,1 0,1 0,2 1,4 2,5 2,0 1,-2 4,-2 1,0 3,0 4,-1l0 0c0,0 9,-4 12,-18 0,0 2,-3 2,-4l-5 2c0,0 2,4 0,7 0,0 0,-7 -1,-6 0,0 -2,1 -2,1 0,0 3,6 0,11 0,0 1,-8 -1,-11l-4 2c0,0 4,7 1,13 0,0 1,-9 -2,-12l-3 3c0,0 3,6 1,11 0,0 0,-10 -2,-11 -1,1 -2,3 -3,4 -1,1 2,5 1,7 0,0 -1,-6 -2,-6 0,0 -3,4 -3,7 -2,0 -3,1 -5,2 -1,2 1,-3 6,-3 0,0 2,-3 3,-4 0,0 -5,0 -8,1 0,0 3,-3 8,-1l4 -3c0,0 -1,-8 -3,-8 0,0 3,-2 9,0l4 -2c-2,-1 -5,-1 -7,-1 0,0 -1,0 -1,0 -1,0 3,-2 9,0l3 -1c0,0 -4,-1 -5,-1 -1,0 -2,0 -2,0 1,-1 2,-1 3,-1 1,0 3,1 5,1 1,1 5,-2 5,-2z"/>
  <path class="fil1" d="M605 106c0,0 -11,29 11,32 1,0 1,0 2,0 2,0 3,0 4,-1 1,-1 -1,-1 0,-4 0,0 0,-1 0,-1 0,-1 0,-2 -1,-3l0 0c0,0 -1,-10 -13,-17 0,0 -2,-3 -3,-3l0 5c0,0 5,0 7,2 0,0 -6,-2 -7,-1 0,0 1,3 1,3 0,0 7,-1 11,3 0,0 -7,-3 -11,-2l1 4c0,0 8,-1 12,3 0,0 -8,-3 -12,-2l2 4c0,0 7,-1 11,2 0,0 -9,-2 -11,-1 1,2 2,3 3,4 1,2 5,0 7,2 0,0 -6,-1 -7,-1 0,0 4,4 7,6 0,0 0,0 0,0 0,2 0,3 1,4 0,2 -3,-1 -2,-5 0,0 -3,-4 -3,-4 0,0 -1,4 -1,7 0,0 -2,-3 1,-8l-2 -4c0,0 -2,5 -2,8 0,0 -2,-3 2,-9l-1 -4c-2,2 -3,5 -3,7 -1,3 -1,-3 3,-9l-1 -2c0,0 -2,3 -2,4 0,1 -1,1 -1,1 0,-2 1,-5 3,-7 2,-2 -6,-13 -6,-13z"/>
  <path class="fil1" d="M810 81c0,0 -10,29 12,32 0,0 1,1 2,1 1,0 3,-1 4,-2 1,-1 -2,-1 0,-3 0,-1 0,-1 0,-2 0,-1 0,-2 -1,-3l0 0c0,0 -1,-9 -14,-17 0,0 -2,-3 -3,-3l1 6c0,0 5,-4 8,-2 0,0 -7,-2 -7,-1 0,1 1,3 1,3 0,0 7,-1 11,3 0,0 -8,-3 -11,-2l1 5c0,0 7,-2 12,2 0,0 -8,-3 -12,-2l2 4c0,0 7,-1 11,2 0,0 -10,-2 -11,-1 1,2 2,3 3,5 1,1 5,-1 7,1 0,0 -6,-1 -7,-1 0,0 4,5 6,6 0,0 0,0 0,1 0,1 1,2 1,4 1,1 -2,-2 -1,-6 0,0 -3,-4 -3,-4 0,0 -2,4 -1,7 0,0 -2,-3 1,-8l-2 -4c0,0 -3,6 -2,8 0,0 -2,-3 2,-9l-1 -4c-2,2 -3,5 -3,8 -1,2 -1,-4 2,-9l0 -3c0,0 -2,3 -2,4 -1,1 -1,1 -1,1 0,-2 1,-4 3,-6 1,-2 -7,-11 -8,-11z"/>
  <path class="fil1" d="M516 320c0,0 -10,29 12,32 0,0 1,0 2,0 1,0 3,0 4,-1 1,-1 -2,-1 0,-4 0,0 0,-1 0,-1 0,-1 0,-2 -1,-3l0 0c0,0 -1,-9 -14,-17 0,0 -2,-3 -3,-3l1 6c0,0 4,-1 7,1 0,0 -7,-2 -7,-1 0,1 1,3 1,3 0,0 7,-1 11,3 0,0 -8,-3 -11,-2l1 5c0,0 7,-2 12,2 0,0 -8,-3 -12,-2l2 4c0,0 7,-1 11,2 0,0 -10,-2 -11,-1 1,2 2,3 3,5 1,1 5,-1 7,1 0,0 -7,-1 -7,-1 0,0 3,5 6,6 0,0 0,0 0,1 0,1 1,2 1,4 1,1 -3,-2 -2,-6 0,0 -2,-4 -2,-4 0,0 -2,4 -1,7 0,0 -2,-3 1,-8l-2 -4c0,0 -3,6 -3,8 0,0 -1,-3 3,-9l-2 -4c-1,2 -2,5 -3,8 0,2 0,-4 3,-9l0 -3c0,0 -2,3 -2,4 -1,1 -1,1 -1,1 0,-2 1,-4 3,-6 1,-2 -6,-14 -7,-14z"/>
  <path class="fil1" d="M474 45c0,0 -10,29 11,31 1,1 2,1 3,1 1,0 3,-1 4,-2 1,-1 -2,0 0,-3 0,0 0,-1 0,-2 0,-1 -1,-1 -1,-2l0 0c0,0 -1,-10 -14,-17 0,0 -2,-3 -3,-4l1 6c0,0 4,0 7,2 0,0 -7,-2 -7,-1 0,0 1,3 1,3 0,0 7,-1 11,2 0,0 -8,-3 -11,-1l1 4c0,0 7,-1 12,3 0,0 -8,-3 -12,-2l2 4c0,0 7,-1 11,2 0,0 -10,-3 -11,-1 1,1 1,3 2,4 2,1 6,-1 8,1 0,0 -7,-1 -7,0 0,0 3,4 6,5 0,1 0,1 0,1 0,2 0,3 1,4 1,1 -3,-1 -2,-6 0,0 -2,-3 -2,-4 0,0 -2,5 -1,8 0,0 -3,-3 0,-9l-1 -4c0,0 -3,6 -3,9 0,0 -1,-4 2,-10l-1 -4c-1,3 -2,5 -3,8 0,3 0,-4 3,-9l0 -3c0,0 -2,4 -2,5 -1,1 -1,1 -1,1 0,-3 1,-5 3,-7 1,-2 -6,-13 -7,-13z"/>
  <path class="fil1" d="M553 204c0,0 8,30 27,19 3,0 5,-2 5,-4 0,-3 -2,0 -2,-3 -1,-1 -2,-2 -3,-3l0 0c0,0 -6,-7 -21,-6 0,0 -4,-1 -4,-1l3 4c0,0 3,-3 7,-2 0,0 -7,2 -6,3 0,0 2,2 2,2 0,0 5,-5 11,-4 0,0 -8,1 -10,5l3 3c0,0 5,-6 11,-6 0,0 -8,3 -10,6l3 2c0,0 6,-5 11,-4 0,0 -10,3 -10,5 2,1 3,1 5,2 1,0 4,-4 6,-3 0,0 -6,3 -5,3 0,0 5,2 8,1 1,2 2,3 3,4 2,0 -3,0 -5,-4 0,0 -3,-2 -4,-2 0,0 1,5 3,7 0,0 -3,-2 -4,-8l-3 -2c0,0 1,6 2,8 0,0 -3,-2 -3,-9l-3 -2c0,3 1,5 2,8 1,3 -3,-3 -3,-9l-2 -2c0,0 0,4 0,5 1,1 0,1 0,1 -1,-2 -1,-4 -1,-6 0,0 0,-1 0,-1 0,0 -13,-8 -13,-7z"/>
  <path class="fil1" d="M775 230c0,0 8,30 28,20 2,0 4,-2 4,-4 0,-3 -2,0 -2,-3 -1,-2 -2,-3 -3,-3l0 0c0,0 -6,-8 -21,-6 0,0 -4,-2 -4,-1l4 4c0,0 3,-3 6,-3 0,0 -6,3 -6,4 0,0 2,2 2,2 0,0 5,-5 11,-5 0,0 -8,2 -10,6l3 2c0,0 5,-5 11,-5 0,0 -8,2 -10,6l3 2c0,0 6,-5 11,-5 0,0 -10,4 -10,6 2,1 3,1 5,2 1,0 4,-4 7,-3 0,0 -6,2 -6,3 0,0 5,1 8,1 1,1 2,3 3,3 2,1 -3,1 -4,-3 0,0 -4,-2 -5,-2 0,0 1,4 3,7 0,0 -3,-2 -4,-8l-3 -2c0,0 1,6 3,8 0,0 -4,-2 -4,-9l-3 -2c0,2 1,5 2,8 1,2 -3,-3 -3,-9l-2 -2c0,0 0,4 1,5 0,1 0,1 0,1 -1,-2 -2,-4 -2,-6 0,-1 0,-1 0,-1 0,0 -13,-8 -13,-8z"/>
  <polygon class="fil2" points="1321,674 1334,688 1355,651 1353,647 "/>
  <polygon class="fil3" points="1321,674 1334,688 1355,651 1353,647 "/>
  <path class="fil4" d="M400 643c0,69 -48,84 -95,84 -48,0 -75,-59 -75,-128 0,-70 39,-126 86,-126 48,0 84,100 84,170z"/>
  <path class="fil3" d="M400 643c0,69 -48,84 -95,84 -48,0 -75,-59 -75,-128 0,-70 39,-126 86,-126 48,0 84,100 84,170z"/>
  <path class="fil4" d="M367 601c0,70 -31,126 -69,126 -37,0 -69,-56 -69,-126 0,-9 -2,-19 -1,-28 7,-56 38,-98 70,-98 38,0 69,57 69,126z"/>
  <path class="fil2" d="M360 295c0,0 -60,67 -79,123l518 57 278 -57c0,0 -110,-132 -140,-137 -30,-5 -577,14 -577,14z"/>
  <path class="fil5" d="M360 295c0,0 -60,67 -79,123l518 57 278 -57c0,0 -110,-132 -140,-137 -30,-5 -577,14 -577,14z"/>
  <polygon class="fil2" points="740,466 823,699 823,640 846,574 911,546 992,583 1021,592 1024,538 927,490 882,469 779,460 750,455 "/>
  <g>
   <path class="fil2" d="M777 490l76 9c-3,-30 19,-30 19,-30l-76 -13 -35 0 16 34zm0 0l0 0 0 0z"/>
  </g>
  <path class="fil4" d="M823 735l54 0 155 -5c0,0 4,29 45,22 0,0 22,2 24,-10 3,-13 -51,-126 -51,-126l-73 -54 -66 -16 -48 14 -30 48 -19 66 9 61z"/>
  <path class="fil3" d="M823 735l54 0 155 -5c0,0 4,29 45,22 0,0 22,2 24,-10 3,-13 -51,-126 -51,-126l-73 -54 -66 -16 -48 14 -30 48 -19 66 9 61z"/>
  <path class="fil2" d="M371 311c-8,6 -32,29 -53,76 0,2 -1,3 -1,5 0,6 5,10 10,11l122 16c1,0 2,0 3,0 8,0 16,-6 18,-14l21 -87c0,-1 0,-2 0,-2 0,-5 -4,-9 -9,-9 0,0 0,0 0,0l-106 2c-2,0 -4,1 -5,2l0 0z"/>
  <path class="fil6" d="M371 311c-8,6 -32,29 -53,76 0,2 -1,3 -1,5 0,6 5,10 10,11l122 16c1,0 2,0 3,0 8,0 16,-6 18,-14l21 -87c0,-1 0,-2 0,-2 0,-5 -4,-9 -9,-9 0,0 0,0 0,0l-106 2c-2,0 -4,1 -5,2l0 0z"/>
  <path class="fil2" d="M548 307l137 -2c10,0 18,7 22,17l43 97c3,12 -5,23 -16,23l-200 -13c-17,-1 -29,-18 -25,-36l15 -66c2,-12 12,-20 24,-20z"/>
  <path class="fil6" d="M548 307l137 -2c10,0 18,7 22,17l43 97c3,12 -5,23 -16,23l-200 -13c-17,-1 -29,-18 -25,-36l15 -66c2,-12 12,-20 24,-20z"/>
  <path class="fil2" d="M761 305c37,0 137,-3 186,-15 0,0 85,64 110,112 0,0 -132,33 -223,37 -1,0 -1,0 -2,0 -13,0 -25,-8 -31,-20l-49 -100c0,-2 -1,-3 -1,-4 0,-6 5,-10 10,-10l0 0z"/>
  <path class="fil6" d="M761 305c37,0 137,-3 186,-15 0,0 85,64 110,112 0,0 -132,33 -223,37 -1,0 -1,0 -2,0 -13,0 -25,-8 -31,-20l-49 -100c0,-2 -1,-3 -1,-4 0,-6 5,-10 10,-10l0 0z"/>
  <path class="fil7" d="M808 320c16,-1 46,-1 76,-4 4,0 7,0 11,0 41,0 80,17 107,48l1 1c2,3 4,8 4,12 0,9 -6,16 -15,18 -32,7 -88,18 -131,20 -1,0 -1,0 -2,0 -9,0 -18,-5 -22,-14l-35 -72c0,0 0,-2 0,-3 0,-3 3,-6 6,-6l0 0z"/>
  <path class="fil2" d="M823 699l0 36 -396 -60c-20,-7 -31,-3 -31,-3 -15,-7 -25,-34 -25,-35l0 0 7 -22 -61 -100 -80 3c12,-102 49,-107 49,-107l475 44 62 244z"/>
  <path class="fil8" d="M738 485c-3,3 -9,7 -19,6 -16,0 -20,-14 -20,-22 0,-1 0,-1 0,-2 0,-1 0,-3 0,-4l21 -6 5 4 12 11c2,2 3,5 3,7 0,2 -1,4 -2,6l0 0z"/>
  <path class="fil9" d="M738 484c-3,3 -9,6 -19,6 -16,0 -20,-14 -20,-22 0,-1 0,-1 0,-2 0,-1 0,-3 0,-4l21 -7 5 4 12 12c2,2 3,4 3,7 0,2 -1,4 -2,6l0 0z"/>
  <path class="fil8" d="M725 459c-3,7 -11,9 -11,9l-15 0c0,-1 0,-1 0,-2 0,-1 0,-3 0,-4l21 -7 5 4z"/>
  <path class="fil10" d="M671 407c0,0 -34,4 -25,35 7,23 22,24 29,24 4,0 7,-1 10,-1 1,0 2,0 2,0l27 1c0,0 15,-4 11,-19 -4,-15 -24,-43 -54,-40z"/>
  <path class="fil3" d="M504 479c0,-12 -7,-21 -15,-21 -9,0 -16,9 -16,21 0,11 7,20 16,20 8,0 15,-9 15,-20z"/>
  <path class="fil8" d="M471 470l45 5c3,0 6,4 6,8l0 0c-1,3 -4,6 -8,6l-44 -5c-4,-1 -7,-4 -6,-8l0 0c0,-3 4,-6 7,-6z"/>
  <path class="fil10" d="M471 469l45 5c3,0 6,4 6,7l0 0c-1,4 -4,7 -8,6l-44 -4c-4,-1 -7,-4 -6,-8l0 0c0,-4 4,-6 7,-6z"/>
  <path class="fil8" d="M232 610c0,0 -28,-27 6,-93 0,0 43,-66 110,6 0,0 39,43 50,112l-26 1c0,0 -25,-123 -99,-116 0,0 -54,9 -41,90z"/>
  <path class="fil8" d="M231 614c0,0 -28,-28 6,-94 0,0 43,-65 110,6 0,0 39,43 50,112l-26 1c0,0 -25,-122 -99,-116 0,0 -54,9 -41,91z"/>
  <path class="fil2" d="M231 612c0,0 -28,-28 6,-94 0,0 43,-66 110,6 0,0 39,43 50,112l-26 1c0,0 -25,-122 -99,-116 0,0 -54,9 -41,91z"/>
  <path class="fil3" d="M231 612c0,0 -28,-28 6,-94 0,0 43,-66 110,6 0,0 39,43 50,112l-26 1c0,0 -25,-122 -99,-116 0,0 -54,9 -41,91z"/>
  <path class="fil11" d="M823 699l0 36 -396 -60c-20,-7 -31,-3 -31,-3 -15,-7 -25,-34 -25,-35l0 0 26 -1 76 11 277 40c0,0 50,5 52,7 3,3 21,5 21,5z"/>
  <path class="fil8" d="M823 698l0 36 -396 -61c-20,-6 -31,-2 -31,-2 -15,-7 -25,-34 -25,-35l0 0 26 -1 76 11 277 40c0,0 50,5 52,7 3,3 21,5 21,5z"/>
  <path class="fil2" d="M823 699l0 36 -396 -60c-20,-7 -31,-3 -31,-3 -15,-7 -25,-34 -25,-35l0 0 26 -1 76 11 277 40c0,0 50,5 52,7 3,3 21,5 21,5z"/>
  <path class="fil3" d="M823 699l0 36 -396 -60c-20,-7 -31,-3 -31,-3 -15,-7 -25,-34 -25,-35l0 0 26 -1 76 11 277 40c0,0 50,5 52,7 3,3 21,5 21,5z"/>
  <path class="fil11" d="M1359 567c0,0 -133,68 -296,61 0,0 -37,2 -39,-2 -3,-3 9,14 9,14 0,0 5,-4 9,-4 5,0 25,1 25,1 0,0 235,-10 295,-63l-3 -7z"/>
  <path class="fil3" d="M473 647c-25,-79 -24,-134 -18,-167 6,-35 18,-51 18,-52l1 1c0,0 -12,17 -18,52 -5,32 -7,87 18,166l-1 0z"/>
  <path class="fil2" d="M1362 612c1,4 4,14 0,17 -1,1 -3,4 -4,7 -1,5 -2,10 -3,15l-38 43 -64 25 -155 11 -93 -152 -209 -123 57 -3c57,-3 220,-39 220,-39l183 41c30,6 56,24 73,48 23,31 33,65 33,65 3,4 4,9 4,15 0,10 -2,21 -3,26 -1,2 -1,3 -1,3 0,0 0,0 0,1z"/>
  <path class="fil8" d="M802 692c0,0 -11,-120 73,-152 0,0 119,-50 188,86l35 77c0,0 11,19 38,18 0,0 129,-3 198,-47l21 -25c0,0 -10,35 -21,43 0,0 -42,49 -195,58 0,0 -63,7 -82,-53 0,0 -25,-134 -155,-133 0,0 -77,1 -79,133l-21 -5z"/>
  <path class="fil2" d="M802 694c0,0 -11,-119 73,-152 0,0 119,-50 188,86l35 77c0,0 11,19 38,19 0,0 129,-4 198,-48l21 -25c0,0 -10,35 -21,43 0,0 -42,49 -195,58 0,0 -63,7 -82,-52 0,0 -25,-135 -155,-134 0,0 -77,2 -79,133l-21 -5z"/>
  <path class="fil3" d="M802 694c0,0 -11,-119 73,-152 0,0 119,-50 188,86l35 77c0,0 11,19 38,19 0,0 129,-4 198,-48l21 -25c0,0 -10,35 -21,43 0,0 -42,49 -195,58 0,0 -63,7 -82,-52 0,0 -25,-135 -155,-134 0,0 -77,2 -79,133l-21 -5z"/>
  <path class="fil3" d="M783 691l-5 -167c0,-3 0,-7 0,-10 0,-8 0,-16 -1,-24 -1,-1 -5,-18 -10,-28 -3,-5 -6,-6 -6,-6l-3 -1 3 0c2,0 4,3 6,6 4,5 8,14 11,29 1,8 1,16 1,24 0,3 0,7 0,10l5 167 -1 0z"/>
  <path class="fil3" d="M886 567l-1 0c0,0 -2,-14 -10,-25 -16,-23 -22,-38 -22,-49 0,0 0,-1 0,-2 0,-3 0,-6 1,-8 3,-8 9,-13 19,-15l0 0 2 0c-9,2 -17,8 -20,15 -1,3 -1,5 -1,8 0,1 0,2 0,2 1,11 6,26 22,49 8,11 10,25 10,25z"/>
  <path class="fil3" d="M1245 513c-71,-43 -223,-83 -224,-83l0 -1c2,0 153,40 225,83l-1 1z"/>
  <path class="fil3" d="M1349 572c-27,-48 -100,-87 -156,-111 -38,-17 -77,-31 -117,-42l1 -1c39,11 79,25 117,42 56,24 129,64 156,111l-1 1z"/>
  <path class="fil8" d="M1328 507c-18,-24 -38,-41 -43,-36 -6,4 4,27 22,51 18,24 38,41 44,36 5,-4 -5,-27 -23,-51z"/>
  <ellipse class="fil9" transform="matrix(0.798635 -0.601815 0.601815 0.798635 1317.58 512.239)" rx="13" ry="55"/>
  <path class="fil8" d="M1326 507c-15,-20 -30,-34 -34,-31 -4,3 5,21 20,41 15,20 31,34 34,32 4,-3 -5,-22 -20,-42z"/>
  <ellipse class="fil10" transform="matrix(0.798635 -0.601815 0.601815 0.798635 1319.07 511.241)" rx="8" ry="45"/>
  <path class="fil8" d="M1183 598c0,0 3,-27 25,-33 0,0 73,-22 89,-22 0,0 17,-5 28,7l11 16c0,0 8,12 -9,14 0,0 -89,33 -128,36 -2,0 -4,1 -6,1 -6,1 -18,2 -10,-19z"/>
  <path class="fil10" d="M1184 597c0,0 4,-27 25,-33 0,0 74,-22 90,-22 0,0 16,-5 27,7l11 15c0,0 8,13 -9,15 0,0 -89,33 -128,36 -2,0 -4,0 -6,1 -6,1 -17,1 -10,-19z"/>
  <path class="fil8" d="M1192 595c0,0 3,-24 23,-29 0,0 68,-18 83,-18 0,0 16,-5 26,6l10 13c0,0 7,10 -9,12 0,0 -82,28 -118,31 -2,0 -4,0 -6,1 -5,1 -16,1 -9,-16z"/>
  <path class="fil4" d="M1193 594c0,0 3,-24 23,-29 0,0 69,-18 83,-18 0,0 16,-5 26,6l10 13c0,0 8,10 -9,12 0,0 -82,28 -118,31 -2,0 -4,0 -6,1 -5,1 -16,1 -9,-16z"/>
  <path class="fil10" d="M1199 579l-1 -1c1,0 101,-12 123,-29l0 1c-21,17 -118,29 -122,29z"/>
  <path class="fil10" d="M1193 592l0 -1c1,0 111,-20 135,-35l0 1c-24,15 -134,35 -135,35z"/>
  <path class="fil10" d="M1191 603l0 -1c1,-1 127,-24 143,-38l0 1c-15,14 -138,37 -143,38z"/>
  <path class="fil8" d="M1322 603c0,0 -47,20 -97,29 -5,1 -9,2 -14,3 -5,1 -12,3 -16,2 -6,-2 -10,6 -3,12l1 1c4,4 10,6 16,6 1,0 1,0 2,0l11 -1c0,0 87,-19 111,-34 0,0 11,-8 12,-16 1,-9 2,-15 -7,-10 -9,5 -16,8 -16,8z"/>
  <path class="fil10" d="M1323 602c-2,1 -48,20 -97,29 -5,1 -9,2 -14,3 -5,1 -12,3 -16,2 -6,-2 -10,6 -3,12l0 0c5,5 11,7 17,7 1,0 2,0 2,0l11 -1 0 0c3,-1 87,-19 111,-34l0 0c1,0 11,-8 12,-16 1,-9 2,-15 -7,-10 -8,5 -15,8 -16,8l0 0z"/>
  <path class="fil8" d="M1317 609c0,0 -39,16 -81,25 -4,1 -8,2 -13,3 -4,1 -9,3 -13,2 -5,0 -8,5 -2,9l0 0c4,2 8,3 13,3 1,0 2,0 3,0l10 -1c0,0 73,-18 93,-30 0,0 9,-6 9,-12 1,-6 1,-10 -6,-6 -7,4 -13,7 -13,7z"/>
  <path class="fil4" d="M1318 607c-1,1 -40,17 -81,26 -4,1 -8,2 -12,3 -5,1 -10,3 -14,2 -5,0 -8,5 -2,9l0 0c4,2 9,3 13,3 1,0 2,0 4,0l9 -1 0 0c1,-1 73,-19 93,-30l0 0c0,0 9,-6 9,-12 1,-6 1,-10 -6,-6 -7,4 -13,6 -13,6l0 0z"/>
  <path class="fil8" d="M1149 640c-6,0 -12,6 -12,14 0,9 4,15 10,16 6,0 11,-6 12,-14 0,-9 -4,-15 -10,-16z"/>
  <ellipse class="fil10" transform="matrix(0.0497214 -0.998763 0.998763 0.0497214 1147.53 654.964)" rx="15" ry="11"/>
  <path class="fil8" d="M1212 666c0,0 -57,9 -72,10 -16,1 -18,9 -18,9 0,0 -3,21 18,15l74 -8c0,0 10,0 10,-14l0 -3c0,-2 0,-3 1,-5 0,-2 -1,-6 -13,-4z"/>
  <path class="fil10" d="M1213 665c0,0 -57,9 -72,10 -15,0 -18,9 -18,9 0,0 -3,21 18,15l74 -8c0,0 10,0 10,-14l0 -3c0,-2 1,-3 1,-5 0,-2 -1,-6 -13,-4z"/>
  <path class="fil10" d="M1362 629c-1,1 -3,3 -4,7l0 0 -18 13c0,0 -1,0 -1,0 -1,0 -1,-1 -1,-2l0 -13c0,0 0,0 0,0 0,-4 2,-8 5,-10l19 -12c1,4 4,14 0,17z"/>
  <path class="fil4" d="M1231 667l-1 14c0,0 0,0 0,1 0,5 4,9 10,9 0,0 0,0 1,0 31,-5 62,-16 89,-32l2 -29c0,0 0,0 0,0 0,-2 -1,-4 -4,-4 0,0 -1,0 -1,0 -16,7 -58,25 -84,28 -7,1 -11,6 -12,13l0 0z"/>
  <path class="fil2" d="M1240 660l0 22c0,0 69,-16 85,-27l0 -22c-27,13 -56,22 -85,27l0 0z"/>
  <path class="fil2" d="M1362 609c-4,0 -7,-6 -7,-14 0,-7 3,-13 7,-13 1,0 2,0 3,1 0,10 -2,21 -3,26z"/>
  <path class="fil10" d="M1363 608c-4,0 -7,-6 -7,-14 0,-7 3,-14 7,-14 1,0 2,1 3,2 0,10 -2,21 -3,26z"/>
  <path class="fil4" d="M1043 704c0,123 -52,125 -120,125 -54,0 -77,-56 -77,-125 0,-70 18,-126 72,-126 54,0 125,56 125,126z"/>
  <path class="fil3" d="M1043 704c0,123 -52,125 -120,125 -54,0 -77,-56 -77,-125 0,-70 18,-126 72,-126 54,0 125,56 125,126z"/>
  <ellipse class="fil4" cx="915" cy="704" rx="68" ry="126"/>
  <path class="fil10" d="M329 629c0,38 -11,68 -34,68 -23,0 -50,-31 -50,-68 0,-38 10,-71 32,-71 23,0 52,33 52,71z"/>
  <path class="fil4" d="M328 627c0,3 0,6 0,9 0,7 -1,14 -3,21 -4,14 -10,24 -20,26 -5,0 -10,-2 -15,-5 -13,-6 -21,-17 -26,-31 -1,-5 -2,-10 -3,-15 0,-2 0,-3 0,-5 0,0 0,-1 0,-1 0,-10 1,-20 3,-29 2,-7 4,-12 7,-18 4,-6 9,-10 16,-10 6,4 12,10 16,16 13,11 22,26 25,42l0 0z"/>
  <path class="fil10" d="M328 636c0,7 -1,14 -3,21 0,0 -13,-15 -23,-5 -7,6 -1,22 3,31 -5,0 -10,-2 -15,-5l0 -1c0,0 6,-18 -9,-29 0,0 -8,-3 -13,-1 -2,-5 -3,-10 -3,-16 1,-1 10,-8 6,-23 -1,-4 -2,-8 -3,-12 0,-6 1,-11 3,-17 2,-5 3,16 14,17 11,1 16,-21 16,-22 7,4 12,10 16,16 4,6 -18,7 -13,27 4,14 17,18 24,19z"/>
  <ellipse class="fil4" transform="matrix(0.99 -0.14 0.14 0.99 290.192 624.294)" rx="8" ry="15"/>
  <path class="fil10" d="M927 709c0,45 -10,81 -30,81 -20,0 -44,-36 -44,-82 0,-45 9,-85 29,-85 20,0 45,41 45,86z"/>
  <path class="fil4" d="M927 707c0,4 0,7 0,10 -1,9 -2,17 -3,26 -3,17 -9,28 -18,30 -1,1 -2,1 -3,1 -4,0 -9,-2 -13,-6 -8,-7 -16,-20 -20,-37 -1,-6 -2,-13 -2,-19 0,-2 0,-3 0,-5 1,-7 3,-14 6,-21 3,-8 8,-12 14,-12 4,0 8,2 12,6 5,4 10,11 14,19 5,2 9,5 13,8l0 0z"/>
  <path class="fil10" d="M927 717c-1,9 -2,17 -3,26 -1,-1 -12,-19 -20,-7 -7,8 -1,27 2,37 -1,1 -2,1 -3,1 -4,0 -9,-2 -13,-6l0 -1c0,0 5,-22 -8,-35 0,0 -7,-3 -12,-1 -1,-6 -2,-13 -2,-19 1,-1 9,-10 6,-28 -2,-6 -3,-11 -4,-14 1,-7 3,-14 6,-21 3,-6 3,19 13,20 10,2 14,-25 14,-26 5,4 10,11 14,19 0,0 -16,9 -11,33 3,17 14,21 21,22z"/>
  <ellipse class="fil4" transform="matrix(0.996665 -0.0815906 0.0815906 0.996665 889.764 705.283)" rx="7" ry="17"/>
  <path class="fil3" d="M1079 512l-1 1c0,0 -39,-17 -183,-42 -6,-1 -13,-2 -20,-3 -1,0 -2,0 -2,0 -23,-4 -49,-8 -77,-12l0 -1c38,5 71,11 100,15 144,25 182,42 183,42z"/>
  <path class="fil8" d="M350 299c0,0 13,-22 58,-24 0,0 325,-43 531,1 0,0 17,8 -2,13 -19,4 -456,20 -587,10z"/>
  <path class="fil12" d="M350 297c0,0 13,-23 58,-25 0,0 325,-42 531,2 0,0 17,8 -2,13 -19,4 -456,20 -587,10z"/>
  <path class="fil8" d="M320 389c20,-47 44,-70 52,-76 1,-1 3,-2 5,-2l107 -2c-1,-3 -5,-6 -9,-6 0,0 0,0 0,0l-106 2c-2,0 -4,1 -6,2 -7,6 -32,29 -52,76 0,2 -1,3 -1,5 0,2 1,4 2,6 2,-2 5,-4 8,-5l0 0z"/>
  <path class="fil8" d="M511 395l15 -66c3,-12 12,-21 24,-21l137 -1c-4,-5 -10,-7 -17,-7 0,0 0,0 0,0l-137 1c-11,0 -21,9 -24,21l0 71c0,2 -1,4 -1,6 0,9 4,17 11,23 -5,-5 -8,-13 -8,-21 0,-2 0,-4 0,-6l0 0z"/>
  <path class="fil8" d="M808 423l-49 -101c0,-1 -1,-3 -1,-4 0,-5 5,-10 10,-10 37,0 134,-3 184,-14 -3,-3 -5,-4 -5,-4 -49,11 -149,14 -186,15 -5,0 -10,4 -10,9 0,2 1,3 1,5l49 100c4,8 11,15 20,18 -6,-4 -10,-9 -13,-14l0 0z"/>
  <rect class="fil2" x="802" y="694" width="20.9302" height="6.44311"/>
  <polygon class="fil3" points="802,701 823,701 823,694 802,694 "/>
  <path class="fil2" d="M396 631l-26 4c1,1 1,2 1,3 1,1 29,-1 29,-1l-3 -1 -1 -5z"/>
  <path class="fil3" d="M396 631l-26 4c1,1 1,2 1,3 1,1 29,-1 29,-1l-3 -1 -1 -5z"/>
  <path class="fil8" d="M299 694c-23,0 -50,-31 -50,-69 0,-25 5,-49 15,-62 -13,11 -19,37 -19,67 0,37 27,68 50,68 8,0 14,-3 19,-10 -4,4 -9,6 -15,6 0,0 0,0 0,0l0 0z"/>
  <path class="fil8" d="M902 785c-21,0 -45,-36 -45,-82 0,-31 4,-59 13,-74 -12,12 -17,44 -17,79 0,46 25,82 45,82 7,0 12,-4 17,-11 -4,4 -8,6 -13,6z"/>
  <path class="fil8" d="M1121 539c-26,-25 -57,-35 -70,-22 -13,13 -3,44 22,70 26,25 57,35 70,22 14,-13 3,-44 -22,-70z"/>
  <ellipse class="fil9" transform="matrix(0.707106 -0.707106 0.707106 0.707106 1098.29 561.765)" rx="34" ry="65"/>
  <path class="fil8" d="M1119 543c-22,-21 -47,-31 -57,-21 -9,9 0,34 22,56 22,22 47,32 57,22 9,-10 0,-35 -22,-57z"/>
  <ellipse class="fil10" transform="matrix(0.707106 -0.707106 0.707106 0.707106 1101.5 559.663)" rx="25" ry="56"/>
  <path class="fil2" d="M1490 777c0,0 -55,-3 -49,36 0,0 -1,6 5,9 0,0 0,-2 6,-1 3,-1 5,-2 7,-3l0 0c0,0 16,-7 22,-32 0,0 4,-6 4,-7l-9 4c0,0 3,7 0,12 0,0 0,-12 -2,-12 0,0 -5,3 -5,3 0,0 6,11 2,20 0,0 1,-14 -3,-19l-7 3c0,0 7,12 2,22 0,0 1,-15 -3,-21l-6 5c0,0 6,12 2,20 0,0 0,-18 -3,-19 0,0 -6,5 -6,7 0,0 4,8 1,13 0,0 -1,-12 -3,-12 0,0 -5,8 -5,13 0,0 0,-8 4,-14 -3,1 -6,2 -8,4 -2,2 1,-5 9,-6 0,0 5,-6 6,-6 0,0 -9,-1 -14,2 0,0 5,-6 15,-3l6 -5c0,0 -11,-1 -16,0 0,0 6,-4 18,-1l6 -4c0,0 -9,-2 -15,-1 0,0 6,-3 17,0l4 -2c0,0 -6,-1 -8,-2 -2,0 -3,0 -3,0 2,-1 3,-1 4,-1 3,0 6,1 9,2 3,1 16,-3 16,-4z"/>
  <path class="fil1" d="M1491 826c0,-4 -18,-7 -39,-7 -22,0 -39,3 -39,7 0,3 17,6 39,6 21,0 39,-3 39,-6z"/>
  <path class="fil1" d="M1596 703c0,-2 -10,-4 -22,-4 -12,0 -22,2 -22,4 0,2 10,4 22,4 12,0 22,-2 22,-4z"/>
  <path class="fil2" d="M1412 695c0,0 -37,-3 -33,24 0,0 0,0 0,1 0,2 2,4 4,5 2,1 0,-2 4,-1 1,0 3,-1 4,-2l0 0c0,0 11,-4 15,-22 0,0 3,-3 3,-4l-6 2c0,0 2,5 0,9 0,0 0,-8 -1,-8 -1,0 -4,1 -4,1 0,0 4,8 1,14 0,0 1,-10 -2,-13l-4 2c0,0 4,9 1,15 0,0 1,-10 -2,-14l-4 3c0,0 4,8 1,14 0,0 0,-12 -2,-13 0,0 -4,3 -4,4 0,0 3,6 1,9 0,0 -1,-8 -2,-8 0,0 -3,6 -4,9 -2,1 -4,2 -5,3 -2,1 0,-4 6,-4 0,0 3,-4 4,-4 0,0 -6,-1 -9,1 0,0 3,-4 10,-2l4 -3c0,0 -8,-1 -11,0 0,0 4,-3 12,-1l4 -3c0,0 -6,-1 -10,-1 0,0 4,-2 11,1l4 -2c0,0 -5,-1 -7,-1 -1,0 -1,0 -1,0 1,-1 2,-1 3,-1 2,0 4,1 6,2 2,0 13,-12 13,-12z"/>
  <path class="fil1" d="M1413 728c0,-3 -12,-5 -26,-5 -15,0 -27,2 -27,5 0,2 12,4 27,4 14,0 26,-2 26,-4z"/>
  <path class="fil13" d="M973 408c3,-10 -3,-20 -3,-20l-1 -23c3,-6 -7,-21 -7,-21 0,0 -2,-12 -5,-13 -2,-1 -4,-5 -4,-5 -4,-7 -7,-14 -10,-22 -1,-4 -3,-8 -2,-12 1,-1 1,-2 1,-3 0,-1 0,-1 0,-1 1,0 0,0 1,0l0 -1c1,-2 1,-4 1,-6 0,-5 -5,-9 -9,-11 -4,-2 -10,-3 -13,-7 -4,-4 -5,-11 -7,-17 -1,-6 -2,-12 -7,-16 -5,-3 -11,-3 -16,-2 -7,1 -14,4 -20,8 -6,4 -11,9 -18,11 -3,1 -6,1 -8,2 -5,2 -9,6 -11,11l0 0c0,1 -1,1 -1,1 0,0 0,1 0,1 0,0 0,1 0,1 0,0 0,1 0,1 0,0 0,0 0,1 0,0 -1,0 -1,1 0,0 0,0 0,0 0,1 0,1 0,1 -2,3 -5,6 -7,9 -9,14 -19,34 -24,43l-1 1 0 0c0,0 -21,21 -8,18 0,0 1,0 2,0l-2 -1 0 0c-2,3 -11,11 5,18 14,5 41,6 50,7l-1 3c-14,12 -8,25 -9,33 0,8 -1,18 -1,18 0,0 -6,10 -5,15 0,5 -5,13 -5,13 0,0 -7,8 -6,13 1,6 -2,13 -2,13 0,0 -5,9 -2,14 2,5 1,8 1,8 0,0 -11,2 -12,8 -1,5 -11,7 -11,7 0,0 -17,7 -21,10 -5,3 -27,24 -27,24 0,0 -23,23 -24,25 -1,3 -15,13 -8,22 0,1 0,1 0,2 7,9 15,17 25,23 4,2 9,5 10,7 3,5 49,34 49,34 0,0 21,18 34,31l1 6c0,0 -1,1 -1,1 0,0 0,0 0,1 0,1 1,2 2,2l0 1c0,0 5,45 10,66 3,14 1,24 -1,30 -5,-6 -6,-8 -6,-8 -1,4 -2,8 -3,11 0,1 0,2 0,2 0,0 0,0 0,0 0,0 0,0 -1,0l-1 3c-2,3 -4,6 -6,9 -4,6 -17,9 -17,9 -1,1 -2,1 -3,2l0 0c-6,3 -3,10 -3,10l0 0 0 0 0 0 0 0 0 0 0 1 1 0 0 0 0 0 1 0 0 1 1 0 0 0 1 1 0 0 1 0 1 0c0,1 0,1 1,1l0 0 1 0 1 1 0 0 2 0 0 1 1 0 1 0 1 1 1 0c0,0 1,0 1,0l1 0c0,0 1,0 1,0l0 1 1 0c0,0 1,0 1,0l0 0 2 0 1 0c0,0 1,0 1,0l1 0 1 0 1 0c1,0 1,0 2,0l0 0 2 0 1 0 1 0 1 -1c0,0 1,0 2,0 11,-3 22,-5 33,-5 4,0 8,1 12,1 12,1 15,-3 15,-3 0,0 0,0 0,-1 0,0 0,0 0,0 0,0 0,-1 0,-1 1,0 0,0 1,-1 0,0 0,0 0,0 -1,-5 -3,-10 -5,-14l-1 0c0,0 0,0 0,-1 -3,-15 -4,-52 -4,-56l0 0c0,0 0,0 0,0 2,0 3,-1 5,-2 0,0 0,0 0,0 10,-8 5,-45 2,-50 -3,-5 -4,-32 -5,-40 -1,-4 -3,-5 -6,-5 0,0 0,0 0,0 0,0 -1,0 -1,0 0,-8 1,-26 2,-39l0 0c0,-1 0,-2 0,-2l3 0 3 -22c0,0 -15,-15 -2,-38 13,-23 14,-48 14,-48 0,0 4,-8 3,-11 0,-1 -1,-4 -1,-7 4,-3 9,-5 14,-7 14,-6 24,-16 29,-21l1 -1c1,2 2,4 3,6 1,1 11,-8 17,-15 1,-1 1,-2 2,-3 3,-9 0,-27 0,-27 4,-8 -1,-16 -1,-16z"/>
  <g>
   <g id="_3155999825136">
    <image x="0" y="-2" width="1596" height="890" xlink:href="slider1_Images\slider1_ImgID1.png"/>
   </g>
  </g>
  <path class="fil14" d="M844 264c-3,4 0,8 -2,12 -1,2 -5,3 -6,5 -4,4 -1,9 0,13 7,16 -3,33 -22,43 5,2 11,3 17,3 3,0 6,0 10,-1 8,-2 15,-8 16,-14 2,-4 1,-8 3,-12 3,-7 14,-11 17,-17 2,-5 0,-11 -4,-16 -3,-6 -8,-11 -13,-17 -3,-3 -3,-4 -8,-3 -3,0 -6,2 -8,4l0 0z"/>
  <path class="fil14" d="M873 310c-1,4 -2,9 -4,13 -1,6 -3,11 -6,16 -4,5 -8,9 -14,11 3,3 7,4 11,4 1,0 2,0 3,0 4,-1 7,-2 11,-1 1,0 3,1 4,2 6,3 12,1 16,-4 2,-3 3,-6 3,-10 0,-2 0,-4 0,-6 -1,-3 -3,-6 -4,-9 -2,-5 -1,-11 -4,-15 -3,-7 -13,-11 -19,-13 -1,3 3,8 3,12z"/>
  <path class="fil8" d="M863 298c0,4 -1,9 -3,13 -1,6 -3,11 -6,16 -4,5 -8,9 -14,11 3,2 7,4 11,4 1,0 2,0 3,0 4,-1 7,-3 11,-2 1,1 3,2 4,3 6,3 12,1 16,-4 2,-3 3,-7 3,-10 0,-2 0,-4 0,-6 -2,-3 -3,-6 -4,-10 -2,-5 -1,-10 -4,-15 -3,-6 -13,-10 -19,-13 -1,4 3,8 2,13z"/>
  <path class="fil15" d="M870 601c0,0 -4,48 -2,54 1,7 4,93 4,93 0,0 1,51 5,61 4,11 -26,8 -27,8 -1,-1 -9,-22 -9,-22 0,0 8,-13 3,-34 -5,-21 -10,-65 -10,-65l-9 -52c0,0 2,-12 -3,-19 -4,-7 -10,-52 -9,-56 1,-4 32,-13 32,-13l14 18 11 27z"/>
  <path class="fil16" d="M813 579c0,0 0,0 0,0 0,0 0,0 0,1 0,0 1,1 1,2 1,15 5,38 8,43 3,4 4,12 4,16 0,0 0,1 0,1 0,1 0,2 0,2l6 40 0 2 2 10c0,0 5,45 10,65 1,5 2,9 2,13 0,5 -1,11 -3,16 0,0 0,0 0,1 0,1 -1,3 -2,4 0,1 1,3 3,7l1 2c0,1 0,1 0,2 2,5 4,10 5,11 1,0 31,3 27,-8 0,-1 0,-3 -1,-5 -3,-16 -4,-56 -4,-56 0,0 -2,-86 -4,-93 -1,-4 0,-26 1,-41l0 0c1,-7 1,-13 1,-13l-11 -27 -14 -18c0,0 -22,6 -29,11l-1 0c-1,0 -1,1 -2,2 0,1 0,4 0,10z"/>
  <path class="fil17" d="M834 639c0,0 14,4 13,8l-13 -8z"/>
  <path class="fil8" d="M841 795c0,0 2,5 4,9 2,1 3,2 3,2 0,0 6,-5 -1,-13 -2,-1 -3,-2 -3,-3 -1,1 -2,3 -3,5l0 0z"/>
  <path class="fil18" d="M834 798c1,3 8,6 11,8 2,0 3,1 3,1 0,-1 1,-2 1,-3 1,-2 1,-6 -3,-10 -1,-1 -2,-2 -3,-3 -5,-6 -5,-8 -5,-8 -2,4 -3,8 -4,11 0,1 0,2 0,2 0,1 0,1 0,2l0 0z"/>
  <path class="fil8" d="M834 798c1,3 8,6 11,8 2,5 4,10 5,11 1,0 31,3 28,-8 -1,-1 -1,-3 -2,-5l-8 6c-4,3 -11,1 -11,1l-8 -7 -2 -1c-2,-2 -5,-3 -6,-6 -2,-1 -3,-2 -3,-2 -2,1 -3,1 -4,3l0 0z"/>
  <path class="fil18" d="M786 831c10,-3 22,-4 33,-4 4,0 8,0 11,0 12,1 15,-3 15,-3 2,-3 2,-7 1,-12 11,0 22,-2 32,-7 9,-4 -6,4 -10,7 -4,3 -11,1 -11,1l-10 -9c-6,0 -10,-6 -10,-6 -3,-3 -3,-2 -3,-2l-2 2c-2,3 -4,6 -6,9 -4,7 -17,10 -17,10 -1,0 -3,1 -5,2 -20,5 -18,12 -18,12z"/>
  <circle class="fil19" cx="845" cy="810" r="1"/>
  <circle class="fil19" cx="833" cy="815" r="1"/>
  <circle class="fil19" cx="838" cy="823" r="1"/>
  <circle class="fil19" cx="820" cy="820" r="1"/>
  <circle class="fil19" cx="840" cy="813" r="1"/>
  <circle class="fil19" cx="845" cy="822" r="1"/>
  <circle class="fil19" cx="827" cy="818" r="1"/>
  <circle class="fil19" cx="814" cy="822" r="1"/>
  <path class="fil8" d="M786 831c0,0 17,12 35,7 11,-3 22,-4 33,-4 4,0 8,0 12,0 12,1 15,-3 15,-3 0,-1 1,-3 1,-4 0,0 0,-1 0,-1 0,0 0,-1 0,-1 0,-2 0,-4 0,-6 -3,2 -8,4 -18,5 -17,0 -40,5 -40,5l-22 -1c0,0 -12,-3 -12,-7 -6,3 -4,10 -4,10z"/>
  <path class="fil18" d="M817 835c0,0 0,0 1,0 0,0 0,0 0,0 4,0 13,-2 19,-3 1,0 3,-1 5,-1 5,0 18,-1 25,-1l0 0c5,0 10,-1 15,-3 0,0 0,-1 0,-1 -5,2 -10,4 -15,4 -7,0 -20,0 -25,1 -2,0 -4,0 -5,0 -5,1 -17,4 -20,4l0 0z"/>
  <path class="fil20" d="M826 642c0,1 0,2 0,2l6 40c1,1 3,2 4,3 3,3 6,7 9,10 4,6 18,3 17,2 0,0 -6,-29 -6,-29l-4 -11c0,0 -5,3 -9,-2 -3,-3 -10,-9 -14,-13l-3 -3c0,0 0,1 0,1z"/>
  <path class="fil17" d="M813 579c0,0 0,0 0,1 0,0 1,1 1,2 1,0 2,0 3,-1l1 0c4,-3 8,-5 12,-8l-11 -5 -4 -1c-1,0 -1,1 -2,2 0,1 0,5 0,10z"/>
  <path class="fil15" d="M716 589c0,0 1,1 1,1 6,9 14,17 24,23 4,3 8,6 10,8 2,4 48,33 48,33 0,0 21,19 34,32l2 1 1 1c1,1 2,2 2,3 1,1 2,2 3,3 0,0 1,0 1,1 0,0 0,0 1,1 3,6 17,2 17,2 0,-1 -6,-29 -6,-29l-4 -12c-2,0 -3,-1 -4,-2 -3,-3 -9,-9 -14,-13 -2,-3 -4,-4 -4,-4l-15 -17c0,0 -19,-24 -33,-31 0,0 16,-6 28,-8 4,0 8,-1 12,-3l1 0c5,-2 9,-5 13,-8l-18 -4 -59 -26c-1,0 -4,0 -7,0l-2 1c0,0 -23,23 -24,25 -1,2 -14,12 -8,22z"/>
  <path class="fil20" d="M782 578c0,0 -26,3 -31,8 0,0 22,2 23,5 0,0 -12,-9 -16,-7l24 -6z"/>
  <path class="fil17" d="M835 687l1 1c1,1 2,2 2,3 1,1 2,2 3,3l3 -5c0,0 -1,0 -2,0 -1,0 -2,0 -3,1l-4 -3z"/>
  <path class="fil18" d="M837 697c0,0 1,1 2,1l3 -3 3 -5c-1,1 -2,2 -3,4 -1,1 -10,0 -5,3z"/>
  <path class="fil17" d="M836 696l1 1c0,0 1,1 2,1l3 -3c0,0 0,0 1,1 3,6 17,2 17,2 0,-1 -6,-29 -6,-29l-4 -12c-1,1 -3,1 -4,1 -1,0 -2,0 -2,0 -1,1 -2,2 0,4 2,4 4,8 4,13 2,5 -3,10 -7,13 0,0 -1,1 -1,2 -2,2 -3,4 -4,6l0 0z"/>
  <path class="fil18" d="M838 696l6 6c0,3 1,5 1,8 0,1 0,3 0,4 0,2 1,3 2,5l0 0c2,1 3,2 5,2 2,0 4,-1 5,-2 0,0 0,0 0,0 10,-8 5,-44 2,-50 -3,-5 -4,-31 -5,-39 -1,-4 -3,-5 -5,-5 -3,0 -7,1 -10,1l0 0c-6,1 -18,2 -14,8 3,4 4,8 5,13 2,6 -7,14 -9,14 -1,1 17,35 17,35z"/>
  <circle class="fil19" cx="846" cy="693" r="2"/>
  <circle class="fil19" cx="849" cy="699" r="2"/>
  <circle class="fil19" cx="857" cy="710" r="2"/>
  <circle class="fil19" cx="853" cy="704" r="2"/>
  <circle class="fil19" cx="860" cy="716" r="2"/>
  <path class="fil8" d="M867 721c0,0 2,17 0,25 2,2 3,2 6,2 1,0 3,0 4,-1 0,0 0,0 0,0 10,-8 5,-45 2,-50 -3,-5 -4,-31 -5,-40 -1,-3 -3,-5 -5,-5 -3,0 -7,1 -10,2 0,8 1,27 3,33 3,8 5,34 5,34z"/>
  <path class="fil8" d="M872 687c1,6 4,24 4,33 0,7 0,20 1,27 0,0 0,0 0,0 10,-8 5,-45 2,-50 -3,-5 -4,-31 -5,-40 -1,-3 -3,-5 -5,-5 0,9 1,30 3,35z"/>
  <path class="fil18" d="M865 653c0,6 1,24 3,29 2,7 5,37 5,38l-1 0c0,0 -2,-31 -5,-38 -1,-5 -3,-22 -3,-29l1 0z"/>
  <path class="fil21" d="M859 324c0,0 -13,2 -20,5 -7,3 -8,4 -8,4l-7 1 0 -8c0,0 -27,2 -30,1 0,0 0,0 0,0 -1,-1 1,10 -1,13 -2,2 -10,11 5,17 16,6 52,7 52,7l10 -20 -1 -20z"/>
  <path class="fil15" d="M899 362l-28 -6c4,-6 7,-14 8,-21 1,-6 1,-13 -2,-18 -8,-17 22,-25 22,-25 0,0 11,17 21,25 3,3 6,5 9,5 11,0 -30,40 -30,40z"/>
  <path class="fil8" d="M748 544c0,0 12,29 23,29 7,1 28,4 43,6l2 0c4,-2 8,-5 12,-8l-12 -4 -59 -26c-1,0 -4,0 -7,0l-2 3z"/>
  <path class="fil8" d="M835 569c11,2 -3,12 -3,12 0,0 6,4 12,19 6,14 8,13 8,13l17 1c1,-7 1,-13 1,-13l-11 -27 -14 -18c0,0 -22,6 -29,11l-1 0c-1,0 -1,1 -2,2 0,1 22,-5 22,0z"/>
  <path class="fil8" d="M899 362l-28 -6c4,-6 7,-14 8,-21l9 8c2,-1 3,-2 4,-4 6,-7 14,-18 14,-18 0,0 1,0 2,0 3,2 6,4 9,4 23,-3 -18,37 -18,37z"/>
  <path class="fil21" d="M748 542c0,0 12,28 23,29 11,1 61,8 61,8 0,0 6,4 12,18 6,15 8,14 8,14l20 1 3 -22c0,0 2,-8 15,-31 13,-23 14,-48 14,-48 0,0 4,-8 3,-11 -1,-4 -4,-31 -4,-33 -1,-3 5,-16 5,-16 0,0 12,-16 11,-18 0,-2 5,-9 5,-9l10 -17c0,1 0,2 0,3 0,2 0,3 1,5 4,4 1,12 1,12l1 11 0 2c0,0 -2,2 -6,6 -4,4 -2,4 -2,4 13,-2 23,20 23,20 0,0 12,-8 17,-15 1,0 1,-1 2,-2 3,-9 0,-27 0,-27 4,-8 -1,-16 -1,-16 3,-10 -3,-20 -3,-20l-1 -23c3,-6 -7,-21 -7,-21 0,0 -2,-11 -4,-12 -2,-1 -5,-6 -5,-6 0,-5 -13,-5 -15,-6 -1,0 -2,-1 -4,-2 -2,-1 -8,2 -8,2 0,0 -8,10 -14,18 -1,1 -3,3 -4,4 -3,1 -6,2 -10,2 -2,0 -5,-1 -7,-2l-9 -8 -27 1 -6 31c-13,11 -8,24 -8,32 -1,8 -2,18 -2,18 0,0 -6,10 -5,15 1,5 -4,13 -4,13 0,0 -7,8 -7,13 1,5 -1,12 -1,12 0,0 -5,9 -3,14 2,6 1,8 1,8 0,0 -10,2 -11,8 -1,5 -11,8 -11,8 0,0 -17,6 -21,9 -4,2 -26,24 -26,24z"/>
  <path class="fil8" d="M967 414c0,0 -20,2 -22,5 -3,3 19,3 19,3l3 -8z"/>
  <path class="fil8" d="M938 429c0,0 14,-5 15,-3 0,2 -15,10 -15,10l0 -7z"/>
  <path class="fil8" d="M932 402c-3,4 -23,29 -23,29l22 -32 1 3z"/>
  <path class="fil8" d="M929 395c-2,2 -18,29 -18,29l16 -31 2 2z"/>
  <path class="fil8" d="M963 362c0,0 -6,-9 -12,-3 -6,6 12,3 12,3z"/>
  <path class="fil8" d="M919 355c0,0 -17,0 -25,3 -7,4 8,-11 25,-3z"/>
  <path class="fil8" d="M900 342l2 0c0,0 6,-2 7,-6 2,-4 13,0 13,0 0,0 2,1 0,-1 -1,-2 5,-9 8,-13 -1,-1 -3,-1 -4,-2 -2,-1 -9,2 -9,2 0,0 -7,10 -13,18 -1,1 -3,2 -4,2l0 0z"/>
  <path class="fil21" d="M900 341l2 0c0,0 6,-2 7,-7 2,-4 13,0 13,0 0,0 2,1 0,-1 -1,-2 5,-8 8,-12 -1,-1 -3,-2 -4,-3 -2,-1 -9,2 -9,2 0,0 -7,10 -13,18 -1,1 -3,2 -4,3l0 0z"/>
  <circle class="fil22" cx="881" cy="357" r="2"/>
  <circle class="fil22" cx="851" cy="398" r="2"/>
  <circle class="fil22" cx="862" cy="372" r="2"/>
  <circle class="fil22" cx="846" cy="424" r="2"/>
  <circle class="fil22" cx="824" cy="469" r="2"/>
  <circle class="fil22" cx="822" cy="493" r="2"/>
  <path class="fil15" d="M797 324l4 11 11 0 10 -11c0,0 0,-2 1,-5 3,-7 8,-19 10,-23 4,-6 6,-29 6,-29 0,0 -4,-9 -15,10 -9,13 -20,33 -24,42 -2,3 -3,5 -3,5z"/>
  <path class="fil15" d="M846 483c0,3 12,4 18,4l2 1c-1,3 6,25 6,25 1,0 1,0 2,0 9,-2 27,-15 27,-15 0,0 0,-4 19,-11 13,-6 24,-17 28,-22 1,-1 2,-2 3,-3l-16 -17c0,0 -3,3 -6,6 -7,6 -16,15 -17,17 -1,2 -27,15 -27,15 -6,-5 -18,-6 -18,-6 0,0 -21,2 -21,6z"/>
  <path class="fil8" d="M877 424c-1,2 -36,25 -42,25 -6,1 5,-11 6,-11 0,0 36,-14 36,-14z"/>
  <polygon class="fil8" points="686,797 685,797 "/>
  <path class="fil23" d="M789 821c0,2 -1,4 -1,6 0,1 0,2 1,3l-4 0c0,0 4,-5 4,-9z"/>
  <polygon class="fil8" points="687,797 686,797 "/>
  <line class="fil8" x1="668" y1="790" x2="668" y2= "790" />
  <line class="fil8" x1="668" y1="790" x2="668" y2= "790" />
  <polygon class="fil8" points="686,797 686,797 "/>
  <path class="fil23" d="M865 737c0,2 0,3 0,5 0,1 1,3 2,4l0 0c1,-3 1,-5 1,-8 0,-1 0,-1 0,-1 0,0 -2,0 -3,0z"/>
  <path class="fil8" d="M929 451c8,-1 15,8 19,14 1,-1 2,-2 3,-3l-16 -17c0,0 -3,3 -6,6z"/>
  <path class="fil8" d="M929 449c13,-2 23,20 23,20 0,0 12,-8 17,-15 1,-1 1,-2 2,-3 -3,-7 -12,-19 -34,-15l0 3c0,0 -2,1 -6,5 -4,4 -2,5 -2,5z"/>
  <path class="fil21" d="M929 450c13,-2 23,20 23,20 0,0 12,-8 17,-15 1,0 1,-1 2,-2 -3,-8 -12,-20 -34,-15l0 2c0,0 -2,2 -6,6 -4,4 -2,4 -2,4z"/>
  <path class="fil7" d="M929 450c13,-2 23,20 23,20 0,0 12,-8 17,-15 1,0 1,-1 2,-2 -3,-8 -12,-20 -34,-15l0 2c0,0 -2,2 -6,6 -4,4 -2,4 -2,4z"/>
  <path class="fil8" d="M797 324l4 11 11 0 10 -11c0,0 0,-2 1,-5 -1,1 -11,6 -16,7 -5,0 -7,-4 -7,-7 -2,3 -3,5 -3,5z"/>
  <path class="fil8" d="M794 328l0 -1c3,-3 5,-5 5,-5 4,-1 7,-2 10,-3 4,-2 7,-4 7,-4l0 3 0 4 0 7c0,0 3,19 -22,9 0,0 1,-7 -8,-6l8 -4z"/>
  <path class="fil21" d="M824 321l0 6 0 7c0,0 2,19 -23,9 0,0 2,-8 -10,-5 -13,3 8,-19 8,-19 0,0 1,9 8,8 6,0 17,-6 17,-6z"/>
  <path class="fil7" d="M824 321l0 6 0 7c0,0 2,19 -23,9 0,0 2,-8 -10,-5 -13,3 8,-19 8,-19 0,0 1,9 8,8 6,0 17,-6 17,-6z"/>
  <path class="fil8" d="M872 520c0,0 -2,-32 -6,-32 -4,-1 -14,3 -14,3l2 25 18 4z"/>
  <path class="fil8" d="M866 488c-1,3 6,25 6,25 0,0 1,0 2,0 -1,-10 -2,-26 -5,-26 -1,0 -1,0 -2,0 -1,0 -2,0 -4,0l3 1z"/>
  <path class="fil21" d="M873 519c0,0 -1,-31 -5,-32 -4,-1 -14,3 -14,3l2 25 17 4z"/>
  <path class="fil7" d="M873 519c0,0 -1,-31 -5,-32 -4,-1 -14,3 -14,3l2 25 17 4z"/>
  <path class="fil14" d="M837 334c3,-5 5,-10 7,-16 1,2 2,4 3,6 1,0 3,-1 5,-1 9,0 17,8 17,18 0,2 0,3 -1,5 -3,4 -10,6 -15,4 -1,-1 -3,-2 -5,-3 -3,-1 -7,1 -10,2 -1,0 -2,0 -3,0 -4,0 -8,-2 -11,-4 5,-2 10,-6 13,-11z"/>
  <path class="fil8" d="M906 294c0,-18 -15,-33 -33,-33 -18,0 -32,15 -32,33 0,18 14,32 32,32 18,0 33,-14 33,-32z"/>
  <circle class="fil15" cx="873" cy="292" r="32"/>
  <g>
   <path class="fil14" d="M849 282c-3,-3 -9,-1 -13,-3 -2,-2 -3,-3 -4,-6 -4,-9 2,-20 11,-24 3,0 5,-1 8,-1 7,-2 12,-8 18,-12 6,-4 12,-6 20,-8 5,-1 11,-1 15,3 5,3 7,10 8,16 1,6 2,12 6,17 3,3 8,4 13,6 4,2 9,6 9,11 0,4 -2,7 -3,11 -1,4 0,8 2,12 -8,5 -17,8 -26,10 -3,0 -7,1 -11,0 -4,-2 -8,-6 -10,-10 -2,-4 -3,-8 -3,-12 -1,-8 2,-17 -2,-25 -6,3 -9,8 -9,14 0,9 7,16 15,16 2,0 5,-1 7,-2 -2,-1 -4,-1 -6,-1 -3,-1 -5,-4 -8,-6l-8 -8c-2,-2 -5,-3 -7,-5 -5,-2 -10,-1 -14,2 -4,2 -9,5 -13,3l5 2zm0 0l0 0 0 0z"/>
  </g>
  <g>
   <path class="fil8" d="M847 281l-2 -1c0,1 1,1 2,1l0 0z"/>
   <path class="fil8" d="M847 281l2 1c0,-1 -1,-1 -1,-1 0,0 -1,0 -1,0 0,0 0,0 0,0l0 0z"/>
   <path class="fil8" d="M930 341c-3,1 -7,2 -11,1 -4,-2 -8,-6 -10,-10 -2,-4 -3,-8 -3,-12 -1,-9 2,-18 -2,-25 -1,-2 -2,-3 -3,-4 -2,-1 -4,-1 -6,-1 -3,-1 -5,-4 -8,-6l-8 -8c-2,-2 -5,-4 -7,-5 -5,-2 -10,-1 -14,2 -3,1 -6,3 -9,4 1,0 1,0 1,0l-2 0c-1,0 -2,-1 -2,-1l2 1c0,0 0,0 0,0 1,0 1,0 1,0 -4,-2 -8,0 -12,-2 -1,-2 -1,-4 -1,-6 0,-1 0,-2 0,-3 -2,2 -3,5 -4,7 1,3 2,4 4,6 4,2 8,0 12,2 3,-1 6,-3 9,-4 4,-3 9,-4 14,-2 2,2 5,3 7,5l8 8c3,2 5,5 8,6 2,0 4,0 6,1 1,1 2,3 3,4 4,8 1,17 2,25 0,4 1,8 3,12 2,4 6,8 10,10 4,1 8,0 11,0 9,-2 18,-5 26,-10 -1,-1 -1,-2 -2,-2 -7,3 -15,6 -23,7l0 0z"/>
   <path class="fil8" d="M940 282c-1,2 -2,4 -2,5 0,1 0,1 0,2 1,-2 1,-5 2,-7l0 0z"/>
  </g>
  <path class="fil8" d="M869 344c-4,4 -11,6 -16,3 -1,-1 -3,-1 -4,-2 -4,-1 -7,1 -11,1 3,3 7,4 11,4 1,0 2,0 3,0 3,0 7,-2 11,-1 1,1 3,1 4,2 5,3 12,1 16,-3 2,-3 3,-7 3,-11 0,0 0,-1 0,-1 -3,5 -8,8 -14,8 -1,0 -2,0 -3,0l0 0z"/>
 </g>
</svg>
